<svg width="20" height="16" viewBox="0 0 20 16" fill="none" xmlns="http://www.w3.org/2000/svg">
<path d="M0 3.302C0 3.38574 0 3.43369 0 3.48236C0 7.20469 0 10.9277 0 14.6501C0 15.3335 0.489695 15.8331 1.16021 15.8331C7.05974 15.8331 12.9586 15.8338 18.8581 15.8331C19.504 15.8324 20 15.33 20 14.6751C20 10.9435 20 7.21184 20 3.48021C20 3.43154 20 3.38288 20 3.30701C19.9409 3.3428 19.9029 3.36284 19.8684 3.38717C16.8064 5.56718 13.7438 7.7479 10.6825 9.92862C10.2364 10.2464 9.76852 10.2478 9.32245 9.93077C6.25976 7.74933 3.19707 5.56861 0.134384 3.38789C0.101316 3.36427 0.0668411 3.34494 0 3.302Z" fill="white"/>
<path d="M0.117571 0.644126C0.452477 0.882453 0.778236 1.11434 1.10399 1.34694C3.43214 3.00521 5.76099 4.66276 8.08914 6.32102C8.68648 6.74686 9.28594 7.17055 9.87976 7.60069C9.97404 7.66939 10.0345 7.65866 10.1246 7.59425C12.4886 5.90807 14.8541 4.22475 17.2195 2.54072C18.0631 1.94025 18.9067 1.33978 19.7496 0.739313C19.7897 0.710686 19.8277 0.679195 19.8945 0.626949C19.7988 0.510291 19.7165 0.387191 19.6117 0.288425C19.4027 0.091609 19.1452 0.00715696 18.8624 0.00214709C18.773 0.000715696 18.683 0.00143139 18.5936 0.00143139C12.8031 0.00143139 7.01196 0.00214709 1.22149 0C0.776123 0 0.419409 0.158169 0.171045 0.542497C0.154861 0.568262 0.142197 0.597606 0.117571 0.644126Z" fill="white"/>
</svg>
