<svg width="283" height="36" viewBox="0 0 283 36" fill="none" xmlns="http://www.w3.org/2000/svg">
<path fill-rule="evenodd" clip-rule="evenodd" d="M95.6061 0.0100098V5.59282H67.5463C67.0408 5.58338 66.5385 5.67548 66.0692 5.86368C65.5999 6.05188 65.1731 6.33235 64.8142 6.68847C64.4553 7.04459 64.1715 7.46912 63.9796 7.93691C63.7877 8.40471 63.6916 8.90625 63.6971 9.41184V29.4818H86.2645C88.2997 29.4818 89.9378 27.9743 89.9378 25.5623V22.6227H73.0989V17.0047H95.6061V26.5522C95.6061 31.2356 91.4604 35.0948 87.0635 35.0948H58.1193V9.41184C58.0289 3.72853 61.662 0.0100098 67.5463 0.0100098H95.6061Z" fill="white"/>
<path fill-rule="evenodd" clip-rule="evenodd" d="M98.0986 0.0100098V5.59282H99.2795C102.018 5.65312 103.058 7.60283 103.058 9.53747V35.0797H108.656V9.55757C108.656 3.42201 105.732 0.0100098 99.3247 0.0100098H98.0986Z" fill="white"/>
<path fill-rule="evenodd" clip-rule="evenodd" d="M55.607 29.2808V34.9491C52.4211 34.4968 50.195 33.0446 48.2755 29.4969C44.4732 22.2776 40.6592 15.06 36.8335 7.84404L25.3814 29.4818H40.8535V35.0797H16.1655L34.6978 0.0100098H38.944L53.3307 27.1904C53.8074 28.1428 54.6175 28.8868 55.607 29.2808Z" fill="white"/>
<path fill-rule="evenodd" clip-rule="evenodd" d="M0 35.0796L18.5625 0.0098877H23.7885L5.21096 35.0796H0Z" fill="white"/>
<path fill-rule="evenodd" clip-rule="evenodd" d="M27.562 0.0100098H30.7831L12.2206 35.0797H9.01465L27.562 0.0100098Z" fill="white"/>
<path fill-rule="evenodd" clip-rule="evenodd" d="M130.419 34.8938H129.379V28.1502L122.847 34.8737H122.611V26.1402H123.616V32.9742L130.193 26.1402H130.419V34.8938ZM123.616 21.8337H122.611V13.0751H127.58V13.9293H123.616V21.8337ZM126.58 1.8341L124.837 5.03504H128.239L126.58 1.8341ZM126.676 0.0100098L131.289 8.76864H130.218L128.681 5.87925H124.379L122.872 8.76864H121.776L126.414 0.0100098H126.676Z" fill="white"/>
<path fill-rule="evenodd" clip-rule="evenodd" d="M213.503 34.8939H212.498V26.1403H217.453V27.0096H213.493L213.503 34.8939ZM203.106 26.1403H204.111V29.8085H209.167V26.1403H210.172V34.8939H209.167V30.6628H204.091V34.8939H203.086L203.106 26.1403ZM200.73 34.8989H199.689V28.1503L193.157 34.8738H192.961V26.1403H193.966V32.9743L200.498 26.1403H200.73V34.8989ZM185.785 27.0096V29.9693L187.468 29.9995C187.967 30.0226 188.466 29.965 188.946 29.8286C189.237 29.7362 189.495 29.5617 189.69 29.3261C189.865 29.0921 189.96 28.8073 189.96 28.5146C189.96 28.2219 189.865 27.9371 189.69 27.7031C189.504 27.4718 189.256 27.2976 188.976 27.2006C188.507 27.083 188.022 27.0356 187.539 27.0599L185.785 27.0096ZM184.78 26.1403H186.745C187.506 26.1176 188.268 26.1646 189.021 26.281C189.551 26.3777 190.035 26.6419 190.403 27.0347C190.769 27.4222 190.966 27.9392 190.951 28.4719C190.978 29.0028 190.798 29.5235 190.448 29.9241C190.062 30.3218 189.558 30.5859 189.011 30.6779C188.18 30.8011 187.339 30.8482 186.499 30.8186H185.785V34.8939H184.78V26.1403ZM182.408 34.8939H181.403V28.1503L174.871 34.8939H174.645V26.1403H175.65V32.9743L182.182 26.1403H182.408V34.8939ZM165.218 26.1403H166.223V29.8085H171.248V26.1403H172.253V34.8939H171.248V30.6628H166.223V34.8939H165.218V26.1403ZM162.841 34.8989H161.806V28.1503L155.273 34.8939H155.047V26.1403H156.052V32.9743L162.585 26.1403H162.816L162.841 34.8989ZM147.911 30.8387V34.8989H146.906V30.8337L146.595 30.5925L142.575 34.8939H141.263L145.977 30.0497L141.645 26.1403H142.967L146.927 29.8437V26.1403H147.932V29.8437L151.886 26.1403H153.208L148.866 30.0548L153.58 34.8989H152.258L148.198 30.5975L147.911 30.8387ZM132.786 26.1403H133.766V29.8085H138.791V26.1403H139.771V34.8939H138.791V30.6628H133.766V34.8939H132.786V26.1403ZM277.773 13.7134C277.049 13.7092 276.335 13.8817 275.693 14.2159C275.081 14.5331 274.561 15.0041 274.185 15.5827C273.819 16.1517 273.627 16.8154 273.633 17.4922C273.628 17.9906 273.733 18.4839 273.942 18.9366C274.15 19.3893 274.457 19.7901 274.839 20.1102C275.65 20.8178 276.697 21.1976 277.773 21.1755C278.512 21.1802 279.241 21.0079 279.899 20.673C280.522 20.3635 281.052 19.8956 281.437 19.3163C281.796 18.7465 281.985 18.0855 281.979 17.4118C281.974 16.7647 281.786 16.1323 281.437 15.5877C281.054 14.9994 280.522 14.5241 279.894 14.2108C279.238 13.8747 278.51 13.704 277.773 13.7134ZM277.733 12.8591C279.108 12.8155 280.449 13.2889 281.492 14.1857C281.97 14.5831 282.353 15.082 282.614 15.6462C282.875 16.2103 283.006 16.8255 282.999 17.447C283.003 18.0679 282.869 18.6819 282.609 19.2455C282.348 19.8092 281.967 20.3085 281.492 20.7082C280.48 21.6014 279.168 22.0789 277.819 22.0449C276.462 22.0852 275.14 21.6134 274.115 20.7233C273.64 20.3291 273.258 19.8343 272.998 19.2747C272.737 18.715 272.604 18.1045 272.608 17.4872C272.605 16.6587 272.843 15.8472 273.291 15.1505C273.756 14.4278 274.407 13.843 275.175 13.4571C275.968 13.0551 276.845 12.85 277.733 12.8591ZM266.125 17.5977V20.9595H267.331C267.865 20.9772 268.399 20.9145 268.914 20.7735C269.238 20.6578 269.521 20.45 269.728 20.1756C269.922 19.9324 270.032 19.6324 270.04 19.3213C270.041 19.1321 270.002 18.9447 269.926 18.7715C269.85 18.5983 269.738 18.4432 269.598 18.3163C269.271 18.0051 268.861 17.7971 268.417 17.7183C267.837 17.6301 267.249 17.5965 266.663 17.6178L266.125 17.5977ZM266.125 13.9093V16.7133H266.678C267.186 16.7343 267.695 16.6766 268.186 16.5425C268.489 16.4407 268.757 16.252 268.954 15.9998C269.135 15.7684 269.234 15.484 269.236 15.1907C269.241 15.0039 269.198 14.8188 269.11 14.6539C269.022 14.489 268.892 14.3501 268.733 14.251C268.278 13.9856 267.751 13.8664 267.226 13.9093H266.125ZM265.155 13.0752H267.105C267.713 13.0505 268.32 13.1338 268.899 13.3214C269.303 13.4725 269.653 13.7401 269.904 14.0902C270.15 14.4133 270.279 14.81 270.271 15.2159C270.281 15.5947 270.172 15.9672 269.959 16.2812C269.721 16.6169 269.396 16.8824 269.02 17.05C269.441 17.1619 269.839 17.3473 270.196 17.5977C270.465 17.7959 270.686 18.0539 270.839 18.3515C270.992 18.6462 271.07 18.9742 271.065 19.3062C271.075 19.6552 271.001 20.0015 270.85 20.3161C270.698 20.6308 270.474 20.9048 270.196 21.1152C269.536 21.6417 268.706 21.9065 267.864 21.8589H265.155V13.0752ZM258.286 13.9294V13.0752H263.698V13.9294H261.487V21.8338H260.482V13.9294H258.286ZM257.281 14.6832L256.497 15.2209C256.081 14.7232 255.552 14.3321 254.955 14.0802C254.328 13.8168 253.654 13.6851 252.975 13.6933C252.22 13.6833 251.473 13.8557 250.799 14.1958C250.161 14.5071 249.622 14.9888 249.241 15.5877C248.779 16.3052 248.594 17.1662 248.72 18.0102C248.845 18.8543 249.274 19.6239 249.925 20.1756C250.797 20.9061 251.908 21.2874 253.045 21.2459C253.692 21.2609 254.335 21.1409 254.933 20.8934C255.531 20.646 256.07 20.2765 256.517 19.8087L257.301 20.3112C256.792 20.8857 256.155 21.3331 255.442 21.6177C254.657 21.9272 253.819 22.0808 252.975 22.07C252.227 22.1108 251.479 21.9981 250.776 21.7388C250.074 21.4796 249.432 21.0792 248.889 20.5625C248.483 20.1524 248.162 19.6651 247.946 19.1291C247.73 18.5932 247.624 18.0196 247.633 17.4419C247.621 16.8241 247.751 16.2116 248.012 15.6516C248.274 15.0915 248.66 14.5987 249.141 14.2108C250.198 13.3125 251.554 12.8443 252.94 12.8993C253.8 12.884 254.655 13.0429 255.452 13.3666C256.155 13.6588 256.781 14.1094 257.281 14.6832ZM240.739 20.9796H241.794C242.524 21.0042 243.255 20.9554 243.975 20.8338C244.286 20.7533 244.563 20.5776 244.769 20.3313C244.981 20.0556 245.087 19.7137 245.07 19.3665C245.088 18.9859 244.962 18.6126 244.715 18.3218C244.469 18.0309 244.122 17.844 243.744 17.7987C243.021 17.7273 242.294 17.6988 241.568 17.7133H240.739V20.9796ZM239.744 13.0752H240.749V16.8389H241.462C242.396 16.8179 243.331 16.87 244.256 16.9947C244.78 17.0922 245.256 17.3629 245.608 17.7635C245.976 18.1949 246.164 18.7503 246.136 19.3163C246.155 19.8536 245.987 20.3809 245.659 20.8074C245.332 21.2339 244.866 21.5329 244.342 21.6529C243.481 21.801 242.607 21.8633 241.734 21.8388H239.744V13.0752ZM238.091 21.8388H237.025L233.744 15.0551L230.412 21.8388H229.332L233.664 13.0752H233.875L238.091 21.8388ZM222.734 13.0752H228.392V13.9294H223.719V16.6781H228.347V17.5324H223.719V20.9796H228.347V21.8338H222.734V13.0752ZM215.885 13.9294V13.0752H221.282V13.9294H219.091V21.8338H218.086V13.9294H215.885ZM214.473 21.8338H213.433V15.0852L206.925 21.8338H206.699V13.0752H207.704V19.8942L214.237 13.0702H214.463L214.473 21.8338ZM199.463 13.7134C198.742 13.7088 198.031 13.8814 197.393 14.2159C196.77 14.5318 196.24 15.0046 195.855 15.5877C195.489 16.1567 195.297 16.8204 195.303 17.4972C195.303 17.996 195.413 18.4885 195.625 18.94C195.837 19.3915 196.145 19.791 196.529 20.1102C197.34 20.819 198.386 21.199 199.463 21.1755C200.205 21.178 200.936 21.0058 201.599 20.673C202.212 20.3609 202.732 19.893 203.106 19.3163C203.472 18.7494 203.661 18.0864 203.649 17.4118C203.655 16.7653 203.472 16.1311 203.121 15.5877C202.734 15.012 202.204 14.5463 201.584 14.236C200.93 13.8925 200.202 13.7131 199.463 13.7134ZM199.418 12.8591C200.793 12.8155 202.134 13.2889 203.177 14.1857C203.657 14.5809 204.042 15.0794 204.303 15.6441C204.564 16.2087 204.694 16.825 204.684 17.447C204.691 18.0684 204.559 18.6835 204.298 19.2476C204.037 19.8117 203.654 20.3106 203.177 20.7082C202.165 21.6087 200.847 22.0871 199.493 22.0449C198.137 22.0823 196.816 21.6108 195.79 20.7233C195.315 20.3293 194.933 19.8346 194.672 19.2749C194.411 18.7152 194.278 18.1046 194.282 17.4872C194.279 16.6579 194.519 15.8457 194.971 15.1505C195.433 14.427 196.083 13.8419 196.85 13.4571C197.647 13.0569 198.527 12.8519 199.418 12.8591ZM187.569 13.9294V16.9043H189.232C189.74 16.9218 190.247 16.8694 190.74 16.7485C191.025 16.6482 191.274 16.4643 191.453 16.2209C191.624 15.9817 191.715 15.6954 191.715 15.4018C191.715 15.1082 191.624 14.8219 191.453 14.5827C191.272 14.3493 191.025 14.1746 190.745 14.0802C190.269 13.9568 189.778 13.9043 189.288 13.9244L187.569 13.9294ZM186.564 13.0702H188.544C189.307 13.0467 190.07 13.0904 190.825 13.2008C191.355 13.306 191.838 13.5749 192.207 13.9696C192.569 14.3587 192.763 14.8755 192.745 15.4068C192.767 15.9384 192.577 16.457 192.217 16.849C191.832 17.2448 191.33 17.5071 190.785 17.5977C189.953 17.7194 189.113 17.7665 188.273 17.7384H187.574V21.8137H186.569L186.564 13.0702ZM179.73 13.9294V13.0752H185.142V13.9294H182.946V21.8338H181.941V13.9294H179.73ZM178.725 14.6832L177.941 15.2209C177.527 14.727 177.004 14.3364 176.413 14.0802C175.777 13.8162 175.093 13.6845 174.403 13.6933C173.647 13.6838 172.899 13.8562 172.223 14.1958C171.591 14.5122 171.056 14.993 170.675 15.5877C170.309 16.1573 170.115 16.8203 170.117 17.4972C170.113 18.0036 170.221 18.5046 170.435 18.9636C170.649 19.4226 170.963 19.8281 171.353 20.1504C172.308 20.903 173.505 21.281 174.719 21.2135C175.933 21.1459 177.08 20.6375 177.946 19.7836L178.73 20.2861C178.225 20.8674 177.592 21.3232 176.881 21.6177C176.092 21.9263 175.251 22.0798 174.403 22.07C173.656 22.1108 172.907 21.9981 172.205 21.7388C171.502 21.4796 170.86 21.0792 170.318 20.5625C169.913 20.1509 169.594 19.6633 169.378 19.1277C169.163 18.5922 169.055 18.0192 169.062 17.4419C169.054 16.8247 169.185 16.2136 169.446 15.6542C169.707 15.0948 170.091 14.6014 170.569 14.2108C171.629 13.3148 172.986 12.847 174.373 12.8993C175.234 12.8849 176.088 13.0438 176.886 13.3666C177.597 13.655 178.23 14.1059 178.735 14.6832H178.725ZM162.308 13.7134C161.584 13.7082 160.87 13.8807 160.228 14.2159C159.618 14.5365 159.099 15.0068 158.72 15.5827C158.354 16.1517 158.162 16.8154 158.168 17.4922C158.167 17.9918 158.277 18.4853 158.489 18.9377C158.701 19.3901 159.01 19.7904 159.394 20.1102C160.197 20.8198 161.236 21.2049 162.308 21.1906C163.05 21.1931 163.781 21.0209 164.444 20.6881C165.054 20.3721 165.573 19.905 165.951 19.3314C166.311 18.7616 166.499 18.1006 166.494 17.4269C166.502 16.7781 166.326 16.1404 165.986 15.5877C165.599 15.012 165.069 14.5463 164.449 14.236C163.789 13.8893 163.054 13.7099 162.308 13.7134ZM162.263 12.8591C163.638 12.8155 164.979 13.2889 166.022 14.1857C166.497 14.5867 166.88 15.0867 167.142 15.6509C167.405 16.2151 167.541 16.8298 167.541 17.452C167.541 18.0742 167.405 18.6889 167.142 19.2531C166.88 19.8173 166.497 20.3173 166.022 20.7183C165.01 21.6115 163.698 22.089 162.348 22.0549C160.992 22.0943 159.67 21.6226 158.645 20.7333C158.17 20.3394 157.788 19.8446 157.527 19.285C157.266 18.7253 157.133 18.1146 157.137 17.4972C157.133 16.6684 157.37 15.8563 157.821 15.1606C158.283 14.437 158.933 13.8519 159.7 13.4671C160.507 13.0555 161.402 12.8468 162.308 12.8591H162.263ZM148.193 21.0047H154.223L151.143 14.8943L148.193 21.0047ZM147.283 23.1253H146.278V21.0047H147.062L150.957 13.0752H151.303L155.404 21.0097H156.158V23.1253H155.178V21.8338H147.283V23.1253ZM141.032 14.9093L139.334 18.1002H142.711L141.032 14.9093ZM141.158 13.0702L145.761 21.8338H144.721L143.183 18.9545H138.897L137.359 21.8338H136.258L140.917 13.0752L141.158 13.0702ZM129.962 13.9294V16.9043H131.645C132.144 16.9201 132.643 16.8677 133.128 16.7485C133.424 16.6486 133.683 16.459 133.866 16.2058C134.042 15.9717 134.137 15.6869 134.137 15.3942C134.137 15.1016 134.042 14.8168 133.866 14.5827C133.688 14.3477 133.443 14.1724 133.163 14.0802C132.694 13.9565 132.21 13.904 131.726 13.9244L129.962 13.9294ZM128.982 13.0752H130.947C131.708 13.0508 132.47 13.0945 133.223 13.2058C133.753 13.31 134.237 13.5791 134.605 13.9747C134.793 14.1619 134.94 14.3856 135.037 14.6319C135.135 14.8783 135.181 15.142 135.173 15.4068C135.195 15.9384 135.005 16.457 134.645 16.849C134.247 17.2543 133.726 17.5174 133.163 17.5977C132.331 17.7203 131.49 17.7674 130.65 17.7384H129.937V21.8137H128.957L128.982 13.0752ZM207.664 1.83419L205.956 5.03514H209.363L207.664 1.83419ZM207.795 0.0101051L212.393 8.76874H211.342L209.79 5.87934H205.523L203.986 8.76874H202.89L207.533 0.0101051H207.795ZM196.584 0.849285V3.82913L198.252 3.85425C198.751 3.87848 199.25 3.82077 199.73 3.6834C200.024 3.59708 200.283 3.42148 200.473 3.1809C200.655 2.94302 200.75 2.65083 200.745 2.35177C200.761 2.05361 200.674 1.75883 200.498 1.51761C200.318 1.28685 200.076 1.11248 199.8 1.01511C199.326 0.894534 198.837 0.842083 198.348 0.859336L196.584 0.849285ZM195.579 0.0101051H197.549C198.315 -0.0218191 199.082 0.0219432 199.84 0.140756C200.37 0.237506 200.854 0.501729 201.222 0.894511C201.583 1.28484 201.777 1.8003 201.765 2.33167C201.786 2.8617 201.606 3.38017 201.262 3.7839C200.867 4.17957 200.357 4.4414 199.805 4.53263C198.974 4.6566 198.133 4.70537 197.292 4.67836H196.594V8.76371H195.589L195.579 0.0101051ZM185.956 0.0101051H187.056L190.071 5.96477L192.795 0.0101051H193.875L190.117 7.87428C189.963 8.23012 189.702 8.52946 189.371 8.73105C189.04 8.93264 188.654 9.02657 188.267 8.99989C187.923 8.99649 187.582 8.9283 187.262 8.79889C186.811 8.55886 186.402 8.24652 186.051 7.87428L186.765 7.34665C187.064 7.63811 187.402 7.8867 187.77 8.08533C187.931 8.14212 188.101 8.17101 188.273 8.17076C188.514 8.17952 188.752 8.11468 188.956 7.98483C189.232 7.73456 189.445 7.42304 189.579 7.0753L185.956 0.0101051ZM179.896 0.849285V0.0101051H185.273V0.849285H183.082V8.76874H182.077V0.849285H179.896ZM172.725 0.0101051H173.73V3.28643L177.68 0.0101051H179.006L174.248 3.92963L179.393 8.76874H178.082L173.735 4.66831V8.76874H172.73L172.725 0.0101051ZM165.358 0.0101051H171.017V0.849285H166.328V3.59798H170.956V4.45223H166.328V7.89941H170.956V8.76874H165.358V0.0101051ZM158.509 0.849285V0.0101051H163.906V0.849285H161.715V8.76874H160.71V0.849285H158.509ZM157.097 8.76874H156.057V2.02012L149.55 8.75366H149.323V0.0101051H150.328V6.8341L156.871 0.0101051H157.097V8.76874ZM140.419 0.0101051H141.575L143.937 3.402L146.303 0.0101051H147.469L144.504 4.22611L147.655 8.74864H146.499L143.937 5.04519L141.359 8.74864H140.198L143.349 4.22611L140.419 0.0101051ZM133.781 0.849285V3.82913L135.459 3.85425C135.96 3.87769 136.46 3.81999 136.942 3.6834C137.236 3.59708 137.496 3.42148 137.686 3.1809C137.865 2.94255 137.959 2.6503 137.952 2.35177C137.963 2.05113 137.869 1.75597 137.686 1.51761C137.502 1.28342 137.254 1.10859 136.972 1.01511C136.503 0.893277 136.019 0.840794 135.535 0.859336L133.781 0.849285ZM132.776 0.0101051H134.746C135.512 -0.021396 136.28 0.022364 137.037 0.140756C137.565 0.241145 138.049 0.504788 138.419 0.894511C138.778 1.28521 138.967 1.80177 138.947 2.33167C138.969 2.86184 138.789 3.38068 138.444 3.7839C138.051 4.17442 137.548 4.43562 137.002 4.53263C136.171 4.65832 135.33 4.7071 134.49 4.67836H133.776V8.76371H132.771L132.776 0.0101051Z" fill="white"/>
<path d="M116.701 0.0100098H115.776V35.0797H116.701V0.0100098Z" fill="white"/>
</svg>
