<svg width="242" height="30" viewBox="0 0 242 30" fill="none" xmlns="http://www.w3.org/2000/svg">
<path fill-rule="evenodd" clip-rule="evenodd" d="M81.7267 0.00854492V4.78087H57.7405C57.3083 4.7728 56.879 4.85154 56.4778 5.01241C56.0766 5.17329 55.7119 5.41304 55.405 5.71746C55.0982 6.02188 54.8556 6.38478 54.6916 6.78466C54.5275 7.18455 54.4454 7.61328 54.4501 8.04547V25.2018H73.7413C75.481 25.2018 76.8813 23.9131 76.8813 21.8513V19.3384H62.487V14.536H81.7267V22.6975C81.7267 26.7009 78.1829 29.9999 74.4243 29.9999H49.6821V8.04547C49.6048 3.18723 52.7104 0.00854492 57.7405 0.00854492H81.7267Z" fill="black"/>
<path fill-rule="evenodd" clip-rule="evenodd" d="M83.8574 0.00854492V4.78087H84.8669C87.2079 4.83242 88.0971 6.49908 88.0971 8.15286V29.987H92.8823V8.17004C92.8823 2.92521 90.3823 0.00854492 84.9055 0.00854492H83.8574Z" fill="black"/>
<path fill-rule="evenodd" clip-rule="evenodd" d="M47.5344 25.03V29.8753C44.8111 29.4887 42.9081 28.2473 41.2673 25.2147C38.017 19.0435 34.7567 12.8736 31.4863 6.70527L21.6968 25.2018H34.9228V29.987H13.8188L29.6607 0.00854492H33.2905L45.5886 23.243C45.996 24.0572 46.6886 24.6932 47.5344 25.03Z" fill="black"/>
<path fill-rule="evenodd" clip-rule="evenodd" d="M0 29.987L15.8677 0.00854492H20.335L4.45446 29.987H0Z" fill="#264A87"/>
<path fill-rule="evenodd" clip-rule="evenodd" d="M23.5608 0.00854492H26.3143L10.4466 29.987H7.70605L23.5608 0.00854492Z" fill="#FF0000"/>
<path fill-rule="evenodd" clip-rule="evenodd" d="M111.486 29.8281H110.597V24.0635L105.013 29.8109H104.811V22.3453H105.67V28.1872L111.293 22.3453H111.486V29.8281ZM105.67 18.664H104.811V11.1769H109.059V11.9072H105.67V18.664ZM108.204 1.56782L106.714 4.30407H109.622L108.204 1.56782ZM108.286 0.00854492L112.229 7.49565H111.314L110 5.02572H106.323L105.034 7.49565H104.098L108.062 0.00854492H108.286Z" fill="#FF0000"/>
<path fill-rule="evenodd" clip-rule="evenodd" d="M182.508 29.8282H181.649V22.3454H185.884V23.0885H182.499L182.508 29.8282ZM173.621 22.3454H174.48V25.4811H178.801V22.3454H179.66V29.8282H178.801V26.2113H174.463V29.8282H173.603L173.621 22.3454ZM171.589 29.8325H170.7V24.0636L165.115 29.811H164.948V22.3454H165.807V28.1873L171.391 22.3454H171.589V29.8325ZM158.814 23.0885V25.6186L160.253 25.6443C160.679 25.6641 161.106 25.6148 161.516 25.4983C161.765 25.4192 161.985 25.2701 162.152 25.0687C162.302 24.8686 162.383 24.6252 162.383 24.375C162.383 24.1248 162.302 23.8814 162.152 23.6813C161.993 23.4836 161.781 23.3347 161.542 23.2517C161.14 23.1512 160.726 23.1107 160.313 23.1315L158.814 23.0885ZM157.955 22.3454H159.634C160.285 22.326 160.937 22.3662 161.58 22.4656C162.033 22.5484 162.447 22.7742 162.762 23.11C163.074 23.4412 163.243 23.8831 163.23 24.3385C163.253 24.7923 163.099 25.2374 162.8 25.5799C162.47 25.9199 162.039 26.1456 161.572 26.2242C160.861 26.3296 160.142 26.3698 159.424 26.3445H158.814V29.8282H157.955V22.3454ZM155.927 29.8282H155.068V24.0636L149.484 29.8282H149.291V22.3454H150.15V28.1873L155.734 22.3454H155.927V29.8282ZM141.232 22.3454H142.091V25.4811H146.387V22.3454H147.246V29.8282H146.387V26.2113H142.091V29.8282H141.232V22.3454ZM139.201 29.8325H138.316V24.0636L132.732 29.8282H132.538V22.3454H133.397V28.1873L138.981 22.3454H139.179L139.201 29.8325ZM126.439 26.3617V29.8325H125.579V26.3574L125.313 26.1512L121.877 29.8282H120.756L124.785 25.6873L121.082 22.3454H122.212L125.597 25.5112V22.3454H126.456V25.5112L129.836 22.3454H130.966L127.255 25.6916L131.284 29.8325H130.154L126.683 26.1555L126.439 26.3617ZM113.509 22.3454H114.347V25.4811H118.642V22.3454H119.48V29.8282H118.642V26.2113H114.347V29.8282H113.509V22.3454ZM237.448 11.7225C236.829 11.719 236.219 11.8664 235.669 12.1521C235.146 12.4233 234.702 12.8259 234.381 13.3205C234.068 13.8069 233.903 14.3743 233.908 14.9528C233.904 15.3788 233.994 15.8005 234.173 16.1875C234.351 16.5744 234.613 16.9171 234.939 17.1907C235.633 17.7956 236.528 18.1202 237.448 18.1014C238.079 18.1054 238.702 17.9581 239.265 17.6718C239.797 17.4072 240.25 17.0072 240.579 16.512C240.887 16.025 241.048 15.4599 241.043 14.884C241.039 14.3309 240.878 13.7903 240.579 13.3248C240.253 12.8219 239.797 12.4155 239.261 12.1478C238.7 11.8605 238.078 11.7145 237.448 11.7225ZM237.413 10.9923C238.589 10.955 239.735 11.3597 240.627 12.1263C241.035 12.466 241.363 12.8925 241.586 13.3747C241.809 13.857 241.921 14.3829 241.915 14.9141C241.918 15.4449 241.804 15.9698 241.581 16.4516C241.359 16.9334 241.033 17.3603 240.627 17.7019C239.762 18.4655 238.64 18.8736 237.486 18.8445C236.327 18.879 235.197 18.4757 234.321 17.7148C233.915 17.3778 233.588 16.9549 233.365 16.4765C233.143 15.9981 233.029 15.4762 233.032 14.9485C233.03 14.2403 233.233 13.5466 233.616 12.9511C234.014 12.3332 234.57 11.8333 235.227 11.5035C235.904 11.1599 236.654 10.9845 237.413 10.9923ZM227.491 15.043V17.9167H228.522C228.978 17.9319 229.434 17.8783 229.875 17.7578C230.152 17.6588 230.394 17.4812 230.571 17.2466C230.737 17.0387 230.83 16.7823 230.837 16.5163C230.838 16.3546 230.805 16.1944 230.74 16.0464C230.675 15.8983 230.579 15.7657 230.459 15.6572C230.18 15.3913 229.829 15.2134 229.45 15.1461C228.954 15.0707 228.452 15.0419 227.95 15.0602L227.491 15.043ZM227.491 11.8901V14.287H227.963C228.398 14.3049 228.832 14.2556 229.252 14.1409C229.512 14.0539 229.74 13.8926 229.909 13.677C230.063 13.4793 230.148 13.2361 230.15 12.9854C230.155 12.8257 230.117 12.6675 230.042 12.5265C229.967 12.3856 229.856 12.2669 229.72 12.1822C229.331 11.9553 228.881 11.8533 228.432 11.8901H227.491ZM226.662 11.177H228.328C228.848 11.1559 229.367 11.2271 229.862 11.3875C230.207 11.5166 230.506 11.7454 230.721 12.0447C230.931 12.3209 231.042 12.66 231.035 13.0069C231.043 13.3308 230.95 13.6492 230.768 13.9176C230.564 14.2046 230.287 14.4315 229.965 14.5748C230.325 14.6704 230.665 14.8289 230.97 15.043C231.201 15.2124 231.389 15.4329 231.52 15.6873C231.651 15.9392 231.717 16.2196 231.713 16.5035C231.722 16.8018 231.658 17.0978 231.529 17.3668C231.4 17.6357 231.208 17.8699 230.97 18.0498C230.407 18.4998 229.697 18.7262 228.977 18.6856H226.662V11.177ZM220.79 11.9072V11.177H225.416V11.9072H223.526V18.6641H222.667V11.9072H220.79ZM219.931 12.5516L219.261 13.0112C218.905 12.5857 218.453 12.2514 217.942 12.0361C217.406 11.811 216.83 11.6984 216.249 11.7054C215.604 11.6968 214.966 11.8442 214.389 12.1349C213.844 12.401 213.383 12.8128 213.058 13.3248C212.663 13.9381 212.504 14.6741 212.612 15.3956C212.719 16.1171 213.085 16.775 213.642 17.2466C214.387 17.871 215.338 18.197 216.31 18.1615C216.863 18.1744 217.412 18.0718 217.923 17.8602C218.434 17.6487 218.896 17.3329 219.278 16.933L219.948 17.3626C219.512 17.8537 218.968 18.2361 218.359 18.4794C217.687 18.7439 216.971 18.8752 216.249 18.866C215.61 18.9009 214.971 18.8045 214.37 18.5829C213.769 18.3613 213.221 18.0191 212.757 17.5773C212.409 17.2268 212.135 16.8102 211.951 16.3521C211.766 15.894 211.675 15.4036 211.683 14.9098C211.673 14.3816 211.784 13.8581 212.007 13.3794C212.231 12.9006 212.561 12.4794 212.972 12.1478C213.875 11.3799 215.035 10.9797 216.219 11.0267C216.955 11.0135 217.685 11.1494 218.367 11.4261C218.968 11.6759 219.503 12.0611 219.931 12.5516ZM205.79 17.9339H206.692C207.316 17.9549 207.94 17.9132 208.556 17.8093C208.822 17.7404 209.059 17.5902 209.235 17.3797C209.416 17.144 209.507 16.8518 209.493 16.555C209.508 16.2297 209.399 15.9106 209.189 15.6619C208.979 15.4133 208.682 15.2535 208.359 15.2148C207.741 15.1538 207.119 15.1294 206.499 15.1418H205.79V17.9339ZM204.939 11.177H205.798V14.3944H206.408C207.207 14.3764 208.005 14.4209 208.797 14.5275C209.245 14.6108 209.652 14.8423 209.952 15.1847C210.266 15.5534 210.428 16.0283 210.403 16.512C210.42 16.9714 210.276 17.4221 209.996 17.7867C209.716 18.1513 209.318 18.4069 208.87 18.5095C208.134 18.6361 207.387 18.6893 206.64 18.6684H204.939V11.177ZM203.526 18.6684H202.615L199.81 12.8694L196.963 18.6684H196.039L199.742 11.177H199.922L203.526 18.6684ZM190.399 11.177H195.236V11.9072H191.241V14.2569H195.197V14.9871H191.241V17.9339H195.197V18.6641H190.399V11.177ZM184.544 11.9072V11.177H189.158V11.9072H187.285V18.6641H186.426V11.9072H184.544ZM183.337 18.6641H182.448V12.8952L176.885 18.6641H176.692V11.177H177.551V17.006L183.135 11.1727H183.329L183.337 18.6641ZM170.506 11.7225C169.89 11.7187 169.282 11.8662 168.737 12.1521C168.204 12.4221 167.751 12.8263 167.422 13.3248C167.109 13.8112 166.945 14.3785 166.95 14.9571C166.95 15.3834 167.044 15.8044 167.225 16.1904C167.407 16.5763 167.67 16.9178 167.998 17.1907C168.691 17.7966 169.586 18.1215 170.506 18.1014C171.14 18.1035 171.766 17.9563 172.332 17.6718C172.856 17.405 173.3 17.005 173.621 16.512C173.934 16.0275 174.095 15.4607 174.085 14.884C174.09 14.3314 173.933 13.7892 173.634 13.3248C173.302 12.8326 172.85 12.4345 172.319 12.1693C171.76 11.8756 171.138 11.7223 170.506 11.7225ZM170.468 10.9923C171.643 10.955 172.789 11.3597 173.681 12.1263C174.091 12.4642 174.421 12.8903 174.644 13.373C174.867 13.8556 174.978 14.3824 174.969 14.9141C174.975 15.4453 174.862 15.9711 174.639 16.4533C174.416 16.9355 174.089 17.362 173.681 17.7019C172.816 18.4717 171.689 18.8806 170.532 18.8445C169.373 18.8765 168.243 18.4735 167.366 17.7148C166.96 17.378 166.634 16.9551 166.411 16.4767C166.188 15.9982 166.074 15.4763 166.078 14.9485C166.075 14.2396 166.28 13.5453 166.666 12.9511C167.061 12.3326 167.616 11.8324 168.273 11.5035C168.953 11.1614 169.706 10.9862 170.468 10.9923ZM160.339 11.9072V14.4502H161.761C162.194 14.4652 162.628 14.4204 163.049 14.317C163.293 14.2313 163.506 14.0741 163.659 13.866C163.805 13.6616 163.883 13.4168 163.883 13.1658C163.883 12.9148 163.805 12.6701 163.659 12.4657C163.504 12.2662 163.293 12.1168 163.054 12.0361C162.647 11.9307 162.227 11.8858 161.808 11.9029L160.339 11.9072ZM159.48 11.1727H161.172C161.824 11.1526 162.477 11.19 163.122 11.2844C163.575 11.3743 163.988 11.6042 164.304 11.9416C164.613 12.2742 164.779 12.716 164.763 13.1701C164.782 13.6246 164.62 14.0679 164.312 14.4029C163.983 14.7413 163.554 14.9655 163.088 15.043C162.377 15.147 161.658 15.1873 160.94 15.1633H160.343V18.6469H159.484L159.48 11.1727ZM153.638 11.9072V11.177H158.264V11.9072H156.387V18.6641H155.528V11.9072H153.638ZM152.779 12.5516L152.109 13.0112C151.755 12.589 151.308 12.2551 150.803 12.0361C150.258 11.8104 149.674 11.6979 149.085 11.7054C148.438 11.6973 147.798 11.8446 147.22 12.1349C146.68 12.4054 146.223 12.8164 145.897 13.3248C145.585 13.8117 145.419 14.3784 145.42 14.9571C145.417 15.3899 145.51 15.8182 145.692 16.2105C145.875 16.6029 146.143 16.9495 146.477 17.2251C147.293 17.8684 148.317 18.1916 149.354 18.1338C150.392 18.0761 151.373 17.6414 152.113 16.9115L152.783 17.3411C152.351 17.838 151.81 18.2277 151.202 18.4794C150.528 18.7431 149.809 18.8744 149.085 18.866C148.445 18.9009 147.806 18.8045 147.205 18.5829C146.605 18.3613 146.056 18.0191 145.592 17.5773C145.246 17.2255 144.973 16.8087 144.789 16.3509C144.605 15.8931 144.513 15.4033 144.518 14.9098C144.512 14.3822 144.624 13.8598 144.847 13.3816C145.07 12.9034 145.398 12.4817 145.807 12.1478C146.713 11.3818 147.873 10.982 149.059 11.0267C149.794 11.0144 150.525 11.1502 151.207 11.4261C151.814 11.6726 152.356 12.0581 152.787 12.5516H152.779ZM138.745 11.7225C138.126 11.7181 137.516 11.8656 136.967 12.1521C136.445 12.4262 136.002 12.8282 135.678 13.3205C135.365 13.8069 135.201 14.3743 135.206 14.9528C135.206 15.3798 135.3 15.8017 135.481 16.1884C135.662 16.5752 135.926 16.9174 136.254 17.1907C136.941 17.7973 137.829 18.1265 138.745 18.1143C139.379 18.1164 140.004 17.9692 140.571 17.6847C141.092 17.4146 141.536 17.0153 141.859 16.5249C142.167 16.0379 142.328 15.4728 142.323 14.8969C142.331 14.3424 142.18 13.7972 141.89 13.3248C141.558 12.8326 141.106 12.4345 140.575 12.1693C140.011 11.8729 139.383 11.7195 138.745 11.7225ZM138.707 10.9923C139.882 10.955 141.028 11.3597 141.92 12.1263C142.326 12.469 142.653 12.8965 142.878 13.3788C143.102 13.8611 143.218 14.3865 143.218 14.9184C143.218 15.4503 143.102 15.9757 142.878 16.458C142.653 16.9403 142.326 17.3678 141.92 17.7105C141.055 18.474 139.933 18.8822 138.78 18.8531C137.62 18.8868 136.49 18.4836 135.614 17.7234C135.207 17.3866 134.881 16.9637 134.658 16.4853C134.435 16.0068 134.322 15.4848 134.325 14.9571C134.321 14.2486 134.524 13.5544 134.909 12.9596C135.305 12.3411 135.86 11.841 136.516 11.5121C137.206 11.1602 137.971 10.9818 138.745 10.9923H138.707ZM126.679 17.9553H131.834L129.201 12.732L126.679 17.9553ZM125.902 19.7681H125.043V17.9553H125.713L129.042 11.177H129.338L132.843 17.9596H133.488V19.7681H132.65V18.6641H125.902V19.7681ZM120.558 12.7449L119.106 15.4725H121.993L120.558 12.7449ZM120.665 11.1727L124.6 18.6641H123.711L122.396 16.2028H118.732L117.418 18.6641H116.477L120.459 11.177L120.665 11.1727ZM111.095 11.9072V14.4502H112.534C112.96 14.4637 113.387 14.4189 113.801 14.317C114.055 14.2317 114.275 14.0695 114.433 13.8531C114.583 13.653 114.664 13.4096 114.664 13.1594C114.664 12.9092 114.583 12.6658 114.433 12.4657C114.28 12.2647 114.071 12.1149 113.831 12.0361C113.431 11.9304 113.017 11.8855 112.603 11.9029L111.095 11.9072ZM110.257 11.177H111.937C112.588 11.1562 113.239 11.1936 113.883 11.2887C114.336 11.3778 114.749 11.6078 115.064 11.9459C115.224 12.106 115.35 12.2972 115.433 12.5078C115.517 12.7183 115.556 12.9437 115.549 13.1701C115.568 13.6246 115.406 14.0679 115.098 14.4029C114.758 14.7494 114.312 14.9743 113.831 15.043C113.12 15.1478 112.402 15.188 111.683 15.1633H111.073V18.6469H110.236L110.257 11.177ZM177.517 1.56791L176.056 4.30416H178.969L177.517 1.56791ZM177.628 0.0086381L181.559 7.49574H180.661L179.334 5.02581H175.687L174.372 7.49574H173.436L177.405 0.0086381H177.628ZM168.045 0.725991V3.27324L169.471 3.29472C169.897 3.31543 170.324 3.26609 170.734 3.14867C170.985 3.07488 171.208 2.92476 171.37 2.71912C171.525 2.51577 171.607 2.266 171.602 2.01035C171.616 1.75548 171.542 1.5035 171.391 1.2973C171.237 1.10003 171.03 0.950975 170.794 0.867743C170.389 0.764671 169.971 0.719834 169.553 0.734582L168.045 0.725991ZM167.186 0.0086381H168.87C169.525 -0.0186516 170.181 0.0187576 170.829 0.120322C171.281 0.203026 171.695 0.428891 172.01 0.764651C172.318 1.09832 172.485 1.53894 172.474 1.99317C172.492 2.44625 172.338 2.88946 172.044 3.23458C171.706 3.5728 171.27 3.79662 170.798 3.87461C170.088 3.98058 169.369 4.02227 168.651 3.99918H168.054V7.49144H167.195L167.186 0.0086381ZM158.96 0.0086381H159.901L162.478 5.09884L164.806 0.0086381H165.73L162.517 6.73114C162.385 7.03532 162.162 7.2912 161.879 7.46352C161.596 7.63585 161.267 7.71614 160.936 7.69333C160.641 7.69043 160.35 7.63214 160.077 7.52151C159.691 7.31633 159.341 7.04934 159.042 6.73114L159.652 6.28011C159.907 6.52925 160.197 6.74176 160.511 6.91155C160.649 6.96009 160.794 6.98479 160.94 6.98457C161.147 6.99206 161.35 6.93663 161.524 6.82564C161.76 6.6117 161.943 6.3454 162.057 6.04815L158.96 0.0086381ZM153.78 0.725991V0.0086381H158.376V0.725991H156.503V7.49574H155.644V0.725991H153.78ZM147.65 0.0086381H148.509V2.80932L151.885 0.0086381H153.019L148.951 3.35915L153.35 7.49574H152.229L148.513 3.99059V7.49574H147.654L147.65 0.0086381ZM141.353 0.0086381H146.189V0.725991H142.182V3.07564H146.138V3.80588H142.182V6.75261H146.138V7.49574H141.353V0.0086381ZM135.498 0.725991V0.0086381H140.111V0.725991H138.238V7.49574H137.379V0.725991H135.498ZM134.291 7.49574H133.402V1.72685L127.839 7.48285H127.646V0.0086381H128.505V5.84196L134.097 0.0086381H134.291V7.49574ZM120.034 0.0086381H121.022L123.041 2.90812L125.064 0.0086381H126.061L123.526 3.61258L126.219 7.47856H125.232L123.041 4.31276L120.837 7.47856H119.845L122.538 3.61258L120.034 0.0086381ZM114.36 0.725991V3.27324L115.794 3.29472C116.222 3.31474 116.65 3.26542 117.061 3.14867C117.313 3.07488 117.535 2.92476 117.697 2.71912C117.851 2.51537 117.931 2.26554 117.925 2.01035C117.935 1.75336 117.854 1.50105 117.697 1.2973C117.541 1.0971 117.328 0.947654 117.087 0.867743C116.686 0.763596 116.272 0.718732 115.859 0.734582L114.36 0.725991ZM113.5 0.0086381H115.184C115.839 -0.0182898 116.495 0.0191173 117.143 0.120322C117.595 0.206137 118.008 0.431506 118.324 0.764651C118.631 1.09863 118.793 1.5402 118.775 1.99317C118.794 2.44638 118.641 2.88989 118.346 3.23458C118.01 3.5684 117.579 3.79168 117.113 3.87461C116.402 3.98205 115.683 4.02375 114.965 3.99918H114.355V7.49144H113.496L113.5 0.0086381Z" fill="black"/>
<path d="M99.7591 0.00854492H98.9688V29.987H99.7591V0.00854492Z" fill="black"/>
</svg>
