<svg width="275" height="275" viewBox="0 0 275 275" fill="none" xmlns="http://www.w3.org/2000/svg">
<rect opacity="0.15" width="275" height="275" rx="43" fill="#264A87"/>
<path d="M175.613 63.8036C175.613 71.9799 168.984 78.6073 160.809 78.6073C152.633 78.6073 146.004 71.9799 146.004 63.8036C146.004 55.6274 152.633 49 160.809 49C168.984 49 175.613 55.6274 175.613 63.8036Z" fill="#264A87"/>
<path d="M153.976 106.506C153.976 114.288 148.473 120.93 141.071 122.639C148.473 123.398 156.064 126.435 159.861 132.887H161.19C164.985 126.813 172.198 123.587 179.979 122.828C172.578 121.121 167.263 114.668 167.263 106.696C167.263 98.5353 173.337 91.7028 181.118 90.3736C177.131 84.2996 168.782 81.6426 160.62 81.6426C152.649 81.6426 144.298 84.2996 140.123 90.3736C147.902 91.5135 153.976 98.3458 153.976 106.506H153.976Z" fill="#264A87"/>
<path d="M129.113 63.8036C129.113 71.9799 122.486 78.6073 114.31 78.6073C106.135 78.6073 99.5059 71.9799 99.5059 63.8036C99.5059 55.6274 106.135 49 114.31 49C122.486 49 129.113 55.6274 129.113 63.8036Z" fill="#264A87"/>
<path d="M107.857 106.507C107.857 114.288 102.354 120.93 94.9521 122.639C102.354 123.398 109.945 126.435 113.551 132.698H114.69C118.485 126.624 125.698 123.209 133.669 122.45C126.267 120.742 120.953 114.29 120.953 106.317C120.953 98.1571 126.836 91.5138 134.618 89.9954C130.442 83.9215 122.282 81.2644 114.12 81.2644C106.149 81.2644 97.7984 83.9214 93.623 89.9954C101.785 91.3233 107.857 98.1557 107.857 106.507L107.857 106.507Z" fill="#264A87"/>
<path d="M169.16 106.506C169.16 114.667 175.612 121.12 183.774 121.31C191.934 121.31 198.578 114.667 198.578 106.506C198.578 98.346 191.934 91.7026 183.774 91.7026C183.205 91.7026 182.635 91.7026 182.066 91.892C174.854 92.8412 169.16 98.9152 169.16 106.506L169.16 106.506Z" fill="#264A87"/>
<path d="M183.774 124.157C175.803 124.157 167.452 126.814 163.276 132.697C165.175 132.887 167.072 133.456 168.78 134.405C174.283 137.062 178.08 142.756 178.08 149.209C178.08 156.99 172.576 163.632 165.175 165.342C173.335 166.1 181.497 169.706 184.723 177.108H206.739V142.566V142.186C206.739 129.472 195.162 124.158 183.774 124.158V124.157Z" fill="#264A87"/>
<path d="M90.9661 121.12H91.3461C99.5064 121.12 106.15 114.477 106.15 106.317C106.15 98.7257 100.267 92.2718 92.8648 91.7024H91.5356C83.3753 91.7024 76.7319 98.3457 76.7319 106.506C76.7319 114.477 82.995 120.93 90.9662 121.12H90.9661Z" fill="#264A87"/>
<path d="M109.755 165.152C102.353 163.444 97.0391 156.992 97.0391 149.019C97.0391 142.566 100.835 137.062 106.149 134.215C107.857 133.266 109.755 132.697 111.652 132.508C107.477 126.434 99.3163 123.967 91.1546 123.967H90.9653C79.768 123.967 68 129.281 68 141.997V155.851V176.918H68.38H90.016C93.2423 169.896 101.215 166.101 109.755 165.151L109.755 165.152Z" fill="#264A87"/>
<path d="M160.809 134.406H160.429H159.859C159.48 134.406 159.29 134.406 158.91 134.595C152.078 135.924 146.953 141.807 146.953 149.019C146.953 156.231 152.078 162.115 158.91 163.442C159.29 163.442 159.48 163.632 159.859 163.632H160.809H161.758H161.947H162.706C170.488 163.252 176.751 156.799 176.751 149.018C176.751 141.046 170.488 134.783 162.706 134.403H161.947H161.758C161.187 134.406 160.998 134.406 160.809 134.406V134.406Z" fill="#264A87"/>
<path d="M183.204 178.058C183.014 177.678 183.014 177.488 182.824 177.108C179.217 170.086 170.867 167.049 162.326 166.86H161.377H160.428H159.479H158.529C150.748 167.43 143.157 170.656 139.93 177.108C139.741 177.488 139.55 177.678 139.55 178.058C139.361 178.438 139.361 178.627 139.17 179.007C138.601 180.715 138.221 182.802 138.221 184.89V185.27V198.746V219.812H138.601H184.53L184.533 185.267V184.887C184.533 182.61 184.153 180.712 183.584 179.004C183.393 178.625 183.393 178.245 183.204 178.056L183.204 178.058Z" fill="#264A87"/>
<path d="M113.931 134.406H113.551H113.361H112.603C104.821 134.786 98.7485 141.238 98.7485 149.02C98.7485 156.802 104.823 163.065 112.413 163.634H113.363H113.552H114.311H114.5H115.449C115.829 163.634 116.018 163.634 116.398 163.445C123.231 162.116 128.355 156.232 128.355 149.021C128.355 141.619 123.041 135.736 116.02 134.597C115.64 134.597 115.45 134.408 115.071 134.408H114.691C114.5 134.405 114.12 134.405 113.931 134.405L113.931 134.406Z" fill="#264A87"/>
<path d="M134.997 178.057C134.808 177.677 134.808 177.488 134.617 177.108C131.391 170.656 123.989 167.619 116.018 167.049H115.069H114.119H113.93H112.981H112.032C103.681 167.239 95.1403 170.276 91.5343 177.297C91.345 177.677 91.1544 177.867 91.1544 178.247C90.9651 178.626 90.9651 178.816 90.7744 179.196C90.2051 180.904 89.8252 182.991 89.8252 185.079V198.933V220H90.2051H136.134L136.136 198.744V184.888C136.136 182.611 135.756 180.713 135.187 179.005C135.376 178.626 135.187 178.246 134.997 178.057L134.997 178.057Z" fill="#264A87"/>
</svg>
