<svg width="275" height="275" viewBox="0 0 275 275" fill="none" xmlns="http://www.w3.org/2000/svg">
<rect opacity="0.15" width="275" height="275" rx="43" fill="#264A87"/>
<path d="M161.299 82.5059H157.188C156.964 82.5059 156.78 82.676 156.78 82.8842V87.3719V88.9757C156.78 91.2363 158.629 92.3654 160.887 92.3654H161.709C163.967 92.3654 165.816 91.2351 165.816 88.9757V87.3719V82.8842C165.816 82.676 165.631 82.5059 165.408 82.5059H161.298H161.299Z" fill="#264A87"/>
<path d="M151.847 80.8596H171.568C173.378 80.8596 174.858 79.3807 174.858 77.5747V74.2874C174.858 72.4789 173.378 71 171.568 71L151.847 71.0012C150.038 71.0012 148.558 72.4801 148.558 74.2885V77.5759C148.558 79.382 150.038 80.8596 151.847 80.8596V80.8596Z" fill="#264A87"/>
<path d="M168.669 89.5723C168.669 91.4414 166.641 94.8312 161.299 94.8312C155.958 94.8312 153.928 91.1332 153.928 89.5723C126.098 93.1867 104.598 116.966 104.598 145.783C104.598 177.094 129.986 202.484 161.299 202.484C192.616 202.484 218 177.096 218 145.783C218 116.967 196.502 93.1877 168.67 89.5753L168.669 89.5723ZM161.3 190.977C136.337 190.977 116.106 170.745 116.106 145.783C116.106 120.82 136.338 100.586 161.3 100.586C186.262 100.586 206.494 120.821 206.494 145.783C206.494 170.744 186.261 190.977 161.3 190.977Z" fill="#264A87"/>
<path d="M162.943 140.983V109.623H160.48V140.986C157.895 141.552 155.96 143.851 155.96 146.602C155.96 149.782 158.536 152.356 161.712 152.356C164.887 152.356 167.466 149.783 167.466 146.602C167.463 143.85 165.525 141.551 162.943 140.984L162.943 140.983Z" fill="#264A87"/>
<path d="M166.452 137.79C166.452 137.79 167.924 138.231 168.9 139.206C169.875 140.181 170.518 141.857 170.518 141.857L180.383 131.993L176.32 127.926L166.452 137.79Z" fill="#264A87"/>
<path d="M54 144.007C54 146.265 55.8489 148.117 58.1094 148.117H93.2764C95.5346 148.117 97.3859 146.266 97.3859 144.007C97.3859 141.747 95.5358 139.896 93.2764 139.896H58.1094C55.8488 139.896 54 141.747 54 144.007Z" fill="#264A87"/>
<path d="M78.6533 102.886C78.6533 105.146 80.5022 106.995 82.7627 106.995H108.181C110.442 106.995 112.29 105.146 112.29 102.886C112.29 100.625 110.442 98.7761 108.181 98.7761L82.7627 98.7773C80.5022 98.7773 78.6533 100.626 78.6533 102.886V102.886Z" fill="#264A87"/>
<path d="M78.6533 185.059C78.6533 187.32 80.5022 189.168 82.7627 189.168H108.181C110.442 189.168 112.29 187.32 112.29 185.059C112.29 182.8 110.442 180.952 108.181 180.952H82.7627C80.5022 180.95 78.6533 182.799 78.6533 185.059Z" fill="#264A87"/>
<path d="M63.0405 164.926C63.0405 167.184 64.8882 169.033 67.1475 169.033H97.0596C99.3178 169.033 101.167 167.184 101.167 164.926C101.167 162.665 99.3177 160.816 97.0596 160.816H67.1499C64.8882 160.816 63.0405 162.665 63.0405 164.926Z" fill="#264A87"/>
<path d="M63.0405 123.18C63.0405 125.44 64.8882 127.289 67.1475 127.289H97.0596C99.3178 127.289 101.167 125.44 101.167 123.18C101.167 120.922 99.3177 119.07 97.0596 119.07L67.1499 119.072C64.8882 119.073 63.0405 120.922 63.0405 123.18V123.18Z" fill="#264A87"/>
</svg>
