<svg width="275" height="275" viewBox="0 0 275 275" fill="none" xmlns="http://www.w3.org/2000/svg">
<rect opacity="0.15" x="0.5" y="0.5" width="274" height="274" rx="42.5" fill="#264A87" stroke="#264A87"/>
<path d="M149.464 59.8858C149.464 60.4657 149.174 60.9005 148.739 61.3354C146.855 62.9298 144.97 64.5243 142.941 66.1189C142.361 66.5538 142.361 66.9886 142.506 67.5684C143.086 69.8877 143.666 72.2069 144.246 74.6712C144.536 75.5409 144.246 76.2657 143.521 76.8455C142.941 77.2803 142.071 77.2803 141.202 76.8455C139.027 75.5409 136.998 74.2364 134.824 72.7869C134.389 72.497 134.099 72.497 133.664 72.7869C131.635 74.0914 129.606 75.396 127.576 76.5556C126.997 76.9904 126.417 77.1354 125.692 76.9904C124.677 76.7005 124.097 75.6859 124.387 74.6712C124.967 72.0621 125.692 69.5981 126.272 66.9886C126.417 66.5538 126.272 66.4088 125.982 66.1189C124.097 64.6694 122.358 63.0749 120.618 61.4805C119.894 60.9007 119.314 60.3209 119.459 59.3062C119.459 58.2915 120.184 57.5668 121.198 57.5668C123.807 57.4218 126.562 57.2769 129.17 56.987C129.605 56.987 129.75 56.6971 129.895 56.4072C130.765 54.2329 131.635 52.0586 132.649 49.7394C132.794 49.5945 132.794 49.3046 132.939 49.1596C133.374 48.4349 133.954 48 134.824 48C135.693 48 136.273 48.4349 136.563 49.3046C137.578 51.6238 138.447 54.0881 139.462 56.4073C139.172 56.9872 139.462 57.2771 140.042 57.2771L146.999 57.7119C147.289 57.7119 147.724 57.7119 148.014 57.8569C148.884 58.1468 149.464 59.0165 149.464 59.8862L149.464 59.8858Z" fill="#264A87"/>
<path d="M200.198 91.3411C199.764 91.776 199.184 91.9209 198.604 91.776C196.14 91.4861 193.676 91.3411 191.212 91.0512C190.487 90.9063 190.197 91.1962 189.907 91.776C188.747 93.8053 187.443 95.9797 186.138 98.0087C185.703 98.7335 184.979 99.1683 184.109 99.0234C183.239 98.8784 182.659 98.2986 182.515 97.284C181.935 94.8198 181.355 92.3556 180.92 89.8916C180.775 89.3118 180.63 89.1669 180.05 89.0219C177.731 88.4421 175.412 87.8623 172.948 87.4274C172.223 87.2825 171.643 86.9926 171.353 86.4128C170.773 85.5431 171.063 84.3835 172.078 83.8037C174.397 82.4991 176.571 81.0496 178.89 79.745C179.18 79.6001 179.325 79.3102 179.325 79.0203C179.18 76.701 178.89 74.2367 178.745 71.9175C178.601 71.0478 178.601 70.1781 179.325 69.5983C180.05 69.0185 181.065 68.8735 181.789 69.5983C183.819 71.3377 185.848 73.0771 187.733 74.8165C188.023 75.1064 188.312 74.9615 188.602 74.9615C190.777 74.0917 192.951 73.0771 195.27 72.2074C195.415 72.0624 195.705 72.0624 195.85 71.9175C196.575 71.6276 197.299 71.7725 198.024 72.3523C198.604 72.9321 198.749 73.6569 198.459 74.5266C197.444 76.8458 196.43 79.165 195.415 81.6294C195.27 82.0642 195.27 82.3541 195.56 82.789C197.154 84.5284 198.604 86.2678 200.198 88.1524C200.488 88.4423 200.633 88.7322 200.778 89.0221C201.068 89.7468 200.923 90.6165 200.198 91.3413V91.3411Z" fill="#264A87"/>
<path d="M214.114 149.464C213.534 149.464 213.099 149.174 212.664 148.739C211.07 146.855 209.475 144.971 207.881 142.941C207.446 142.361 207.011 142.361 206.431 142.506C204.112 143.086 201.793 143.666 199.329 144.246C198.459 144.536 197.734 144.246 197.154 143.521C196.719 142.941 196.719 142.072 197.154 141.202C198.459 139.028 199.763 136.998 201.213 134.824C201.503 134.389 201.503 134.099 201.213 133.664C199.908 131.635 198.604 129.606 197.444 127.576C197.009 126.997 196.864 126.417 197.009 125.692C197.299 124.677 198.314 124.098 199.329 124.388C201.938 124.967 204.402 125.692 207.011 126.272C207.446 126.417 207.591 126.272 207.881 125.982C209.33 124.098 210.925 122.358 212.519 120.619C213.099 119.894 213.679 119.314 214.694 119.459C215.708 119.459 216.433 120.184 216.433 121.198C216.578 123.808 216.723 126.562 217.013 129.171C217.013 129.605 217.303 129.75 217.593 129.895C219.767 130.765 221.941 131.635 224.26 132.649C224.405 132.794 224.695 132.794 224.84 132.939C225.565 133.374 226 133.954 226 134.824C226 135.693 225.565 136.273 224.695 136.563C222.376 137.578 219.912 138.447 217.592 139.462C217.158 139.607 216.868 139.897 216.868 140.477L216.433 147.434C216.433 147.724 216.433 148.159 216.288 148.449C215.853 148.884 214.983 149.464 214.114 149.464L214.114 149.464Z" fill="#264A87"/>
<path d="M182.659 200.199C182.224 199.764 182.079 199.184 182.224 198.604C182.514 196.14 182.659 193.676 182.949 191.212C183.094 190.487 182.804 190.197 182.224 189.907C180.195 188.748 178.02 187.443 175.991 186.139C175.266 185.704 174.832 184.979 174.977 184.109C175.121 183.24 175.701 182.66 176.716 182.515C179.18 181.935 181.644 181.355 184.108 180.92C184.688 180.775 184.833 180.631 184.978 180.051C185.558 177.732 186.138 175.412 186.572 172.948C186.717 172.223 187.007 171.643 187.587 171.353C188.457 170.774 189.616 171.064 190.196 172.078C191.501 174.397 192.95 176.572 194.255 178.891C194.4 179.181 194.69 179.326 194.98 179.326C197.299 179.181 199.763 178.891 202.082 178.746C202.952 178.601 203.822 178.601 204.402 179.326C204.981 180.05 205.126 181.065 204.402 181.79C202.662 183.819 200.923 185.848 199.183 187.733C198.893 188.023 199.038 188.313 199.038 188.603C199.908 190.777 200.923 192.951 201.793 195.27C201.937 195.415 201.937 195.705 202.082 195.85C202.372 196.575 202.227 197.3 201.648 198.025C201.068 198.604 200.343 198.749 199.473 198.459C197.154 197.445 194.835 196.43 192.371 195.415C191.936 195.27 191.646 195.27 191.211 195.56C189.471 197.155 187.732 198.604 185.848 200.199C185.558 200.489 185.268 200.634 184.978 200.779C184.253 201.069 183.383 200.924 182.659 200.199H182.659Z" fill="#264A87"/>
<path d="M124.536 214.114C124.536 213.534 124.826 213.099 125.26 212.665C127.145 211.07 129.029 209.476 131.058 207.881C131.638 207.446 131.638 207.011 131.493 206.432C130.914 204.112 130.334 201.793 129.754 199.329C129.464 198.459 129.754 197.734 130.479 197.155C131.058 196.72 131.928 196.72 132.798 197.155C134.972 198.459 137.002 199.764 139.176 201.213C139.611 201.503 139.9 201.503 140.335 201.213C142.365 199.909 144.394 198.604 146.423 197.444C147.003 197.01 147.583 196.865 148.308 197.01C149.322 197.299 149.902 198.314 149.612 199.329C149.032 201.938 148.308 204.402 147.728 207.011C147.583 207.446 147.728 207.591 148.018 207.881C149.902 209.331 151.642 210.925 153.381 212.52C154.106 213.099 154.686 213.679 154.541 214.694C154.541 215.708 153.816 216.433 152.801 216.433C150.192 216.578 147.438 216.723 144.829 217.013C144.394 217.013 144.249 217.303 144.104 217.593C143.235 219.767 142.365 221.941 141.35 224.261C141.205 224.406 141.205 224.695 141.06 224.84C140.626 225.565 140.046 226 139.176 226C138.306 226 137.727 225.565 137.437 224.695C136.422 222.376 135.552 219.912 134.538 217.593C134.393 217.158 134.103 216.868 133.523 216.868L126.565 216.433C126.275 216.433 125.841 216.433 125.551 216.288C125.116 215.853 124.536 214.984 124.536 214.114L124.536 214.114Z" fill="#264A87"/>
<path d="M73.8013 182.659C74.2362 182.224 74.816 182.079 75.3958 182.224C77.86 182.514 80.3241 182.659 82.7882 182.949C83.5129 183.094 83.8028 182.804 84.0927 182.224C85.2523 180.195 86.5569 178.02 87.8615 175.991C88.2963 175.267 89.0211 174.832 89.8908 174.977C90.7605 175.122 91.3403 175.701 91.4852 176.716C92.065 179.18 92.6449 181.644 93.0797 184.108C93.2247 184.688 93.3696 184.833 93.9494 184.978C96.2686 185.558 98.5879 186.138 101.052 186.573C101.777 186.718 102.357 187.007 102.647 187.587C103.226 188.457 102.937 189.617 101.922 190.196C99.6027 191.501 97.4286 192.95 95.1094 194.255C94.8195 194.4 94.6745 194.69 94.6745 194.98C94.8195 197.299 95.1094 199.763 95.2543 202.083C95.3993 202.952 95.3993 203.822 94.6745 204.402C93.9497 204.982 92.9351 205.127 92.2103 204.402C90.181 202.662 88.1517 200.923 86.2672 199.184C85.9773 198.894 85.6874 199.039 85.3974 199.039C83.2232 199.908 81.0489 200.923 78.7297 201.793C78.5847 201.938 78.2948 201.938 78.1499 202.083C77.4251 202.372 76.7004 202.227 75.9756 201.648C75.3958 201.068 75.2508 200.343 75.5408 199.473C76.5554 197.154 77.5701 194.835 78.5847 192.371C78.7297 191.936 78.7297 191.646 78.4398 191.211C76.8453 189.472 75.3958 187.732 73.8013 185.848C73.5114 185.558 73.3665 185.268 73.2215 184.978C72.9316 184.253 73.0766 183.383 73.8013 182.659V182.659Z" fill="#264A87"/>
<path d="M59.8858 124.536C60.4657 124.536 60.9005 124.826 61.3354 125.261C62.9298 127.145 64.5243 129.029 66.1189 131.059C66.5538 131.639 66.9886 131.639 67.5684 131.494C69.8877 130.914 72.2069 130.334 74.6712 129.754C75.5409 129.464 76.2657 129.754 76.8455 130.479C77.2803 131.059 77.2803 131.928 76.8455 132.798C75.5409 134.972 74.2364 137.002 72.7869 139.176C72.497 139.611 72.497 139.901 72.7869 140.336C74.0914 142.365 75.396 144.394 76.5556 146.424C76.9904 147.003 77.1354 147.583 76.9904 148.308C76.7005 149.323 75.6859 149.902 74.6712 149.612C72.0621 149.033 69.5981 148.308 66.9886 147.728C66.5538 147.583 66.4088 147.728 66.1189 148.018C64.6694 149.902 63.0749 151.642 61.4805 153.381C60.9007 154.106 60.3209 154.686 59.3062 154.541C58.2915 154.541 57.5668 153.816 57.5668 152.802C57.4218 150.192 57.2769 147.438 56.987 144.829C56.987 144.395 56.6971 144.25 56.4072 144.105C54.2329 143.235 52.0586 142.365 49.7394 141.351C49.5945 141.206 49.3046 141.206 49.1596 141.061C48.4349 140.626 48 140.046 48 139.176C48 138.307 48.4349 137.727 49.3046 137.437C51.6238 136.422 54.0881 135.553 56.4073 134.538C56.9872 134.828 57.2771 134.538 57.2771 133.958L57.7119 127C57.7119 126.71 57.7119 126.276 57.8569 125.986C58.1468 125.116 59.0165 124.536 59.8862 124.536L59.8858 124.536Z" fill="#264A87"/>
<path d="M91.341 73.8012C91.7759 74.2361 91.9208 74.8159 91.7759 75.3957C91.486 77.8599 91.341 80.324 91.0511 82.788C90.9062 83.5128 91.1961 83.8027 91.7759 84.0926C93.8052 85.2522 95.9796 86.5568 98.0086 87.8613C98.7334 88.2962 99.1682 89.0209 99.0233 89.8907C98.8783 90.7604 98.2985 91.3402 97.2839 91.4851C94.8197 92.0649 92.3555 92.6447 89.8915 93.0796C89.3117 93.2245 89.1667 93.3695 89.0218 93.9493C88.442 96.2685 87.8622 98.5877 87.4273 101.052C87.2824 101.777 86.9925 102.357 86.4127 102.647C85.543 103.226 84.3833 102.936 83.8035 101.922C82.499 99.6026 81.0495 97.4285 79.7449 95.1092C79.5999 94.8193 79.31 94.6744 79.0201 94.6744C76.7009 94.8193 74.2366 95.1092 71.9174 95.2542C71.0476 95.3991 70.1779 95.3991 69.5981 94.6744C69.0183 93.9496 68.8734 92.935 69.5981 92.2102C71.3376 90.1809 73.077 88.1516 74.8164 86.267C75.1063 85.9771 74.9613 85.6872 74.9613 85.3973C74.0916 83.2231 73.077 81.0488 72.2073 78.7296C72.0623 78.5846 72.0623 78.2947 71.9174 78.1498C71.6275 77.425 71.7724 76.7002 72.3522 75.9755C72.932 75.3957 73.6568 75.2507 74.5265 75.5406C76.8457 76.5553 79.1649 77.5699 81.6293 78.5846C82.0641 78.7296 82.354 78.7296 82.7889 78.4397C84.5283 76.8452 86.2677 75.3957 88.1522 73.8012C88.4421 73.5113 88.7321 73.3664 89.022 73.2214C89.7467 72.9315 90.6164 73.0765 91.3412 73.8012H91.341Z" fill="#264A87"/>
<path d="M175.702 119.172L175.412 118.882C175.267 118.737 175.267 118.737 175.122 118.737L174.977 118.592C174.977 118.592 174.832 118.592 174.832 118.447L174.397 118.302C174.252 118.157 173.962 118.157 173.817 118.012C170.338 116.853 166.57 117.432 163.091 117.722H162.656H161.351H160.627H160.047C159.322 117.722 158.452 117.722 157.728 117.867H157.293H157.003H156.278C155.843 117.867 155.408 118.012 155.118 118.012H154.829C154.684 118.012 154.684 117.867 154.684 117.867L155.698 114.388C156.278 112.214 157.003 110.04 157.583 107.865C158.597 104.821 158.887 102.212 158.597 99.8932C158.307 96.8493 156.423 93.9501 153.814 92.3558C152.364 91.4861 150.625 90.9062 148.885 90.9062H148.45C146.856 90.9062 145.841 91.9209 145.696 93.5154C145.551 95.5447 145.262 97.4289 144.972 99.3134C144.537 102.502 143.667 105.111 142.363 107.286C141.638 108.59 140.768 109.75 139.753 110.764C138.449 112.214 136.999 113.808 135.405 115.548L131.781 119.607C130.911 120.621 130.041 121.491 129.172 122.361C129.027 122.506 128.737 122.796 128.447 122.941C127.867 123.52 127.142 123.955 126.418 124.245C125.983 124.39 125.403 124.68 124.678 124.825C121.634 125.695 119.895 126.564 119.75 128.304C119.75 129.318 119.605 130.188 119.605 131.058V131.638V133.957V162.222H124.678C126.273 162.512 128.012 162.802 130.186 163.092L131.201 163.237C135.405 163.962 139.463 164.541 143.377 165.121C153.088 166.281 164.685 169.035 171.787 160.338C174.686 156.714 174.976 151.641 175.556 147.292C176.571 140.189 177.875 132.942 178.89 125.839C179.035 123.52 177.875 120.766 175.701 119.171L175.702 119.172Z" fill="#264A87"/>
<path d="M111.197 121.345H98.2959C96.5565 121.345 95.252 122.65 95.252 124.389V162.511C95.252 164.25 96.5565 165.555 98.2959 165.555H111.197C112.936 165.555 114.241 164.25 114.241 162.511V124.389C114.241 122.65 112.936 121.345 111.197 121.345Z" fill="#264A87"/>
</svg>
