<svg width="275" height="275" viewBox="0 0 275 275" fill="none" xmlns="http://www.w3.org/2000/svg">
<rect opacity="0.15" width="275" height="275" rx="43" fill="#264A87"/>
<path d="M63.7554 169.218L42.8983 193.054C42.1268 193.932 41.9406 195.181 42.4221 196.247C42.9037 197.314 43.9638 197.999 45.133 198H229.867C231.036 197.999 232.096 197.314 232.578 196.247C233.059 195.181 232.873 193.932 232.102 193.054L211.245 169.218C210.679 168.574 209.865 168.205 209.01 168.204H174.654C182.203 158.813 185.917 146.914 185.048 134.895C184.178 122.879 178.793 111.636 169.971 103.43C161.149 95.2231 149.547 90.6608 137.499 90.6608C125.451 90.6608 113.849 95.2231 105.027 103.43C96.2054 111.636 90.8193 122.879 89.9496 134.895C89.081 146.914 92.7949 158.813 100.343 168.204H65.988C65.1327 168.205 64.3187 168.574 63.7533 169.218H63.7554ZM95.7857 139.898V138.408V136.918H121.052C121.107 132.037 121.435 127.163 122.035 122.318C115.757 120.069 110.042 116.48 105.291 111.801C105.947 111.056 106.603 110.34 107.288 109.626H107.286C111.652 113.889 116.871 117.18 122.602 119.279C123.447 111.596 125.87 104.17 129.724 97.4681C131.179 97.1782 132.653 96.98 134.133 96.8722C130.587 100.239 127.22 108.612 125.463 120.233H125.462C133.35 122.623 141.768 122.623 149.656 120.233C147.898 108.612 144.531 100.24 140.986 96.8722C142.467 96.98 143.939 97.1782 145.396 97.4681C149.206 104.179 151.59 111.604 152.397 119.279C158.075 117.161 163.241 113.872 167.564 109.626C168.249 110.341 168.905 111.056 169.561 111.801H169.559C164.808 116.48 159.094 120.069 152.815 122.318C153.415 127.163 153.744 132.037 153.798 136.918H179.214V138.408V139.898H153.858C153.803 144.78 153.475 149.653 152.874 154.498C159.153 156.747 164.868 160.336 169.619 165.016C168.963 165.761 168.308 166.476 167.623 167.19C163.284 162.938 158.096 159.649 152.397 157.537C151.553 165.22 149.129 172.647 145.276 179.348C143.821 179.638 142.347 179.836 140.866 179.944C144.413 176.577 147.779 168.204 149.536 156.583H149.538C141.65 154.193 133.231 154.193 125.343 156.583C127.102 168.204 130.468 176.576 134.013 179.944C132.533 179.836 131.06 179.638 129.604 179.348C125.793 172.637 123.409 165.212 122.602 157.537C116.925 159.655 111.758 162.944 107.435 167.19C106.75 166.475 106.095 165.761 105.439 165.016H105.44C110.192 160.336 115.906 156.747 122.184 154.498C121.584 149.653 121.256 144.78 121.201 139.898H95.7857ZM106.065 174.161C114.735 181.842 125.917 186.082 137.5 186.082C149.083 186.082 160.264 181.842 168.934 174.161H207.669L223.312 192.039H180.079C183.662 189.226 186.956 186.061 189.911 182.593L185.353 178.749L185.352 178.751C180.9 184.005 175.615 188.494 169.709 192.039H105.292C99.2516 188.414 93.8631 183.801 89.3512 178.393L84.7913 182.206C87.8227 185.823 91.2173 189.118 94.9218 192.039H51.689L67.3319 174.161L106.065 174.161Z" fill="#264A87"/>
<path d="M185.561 98.3317C190.243 103.926 193.903 110.3 196.376 117.163L201.978 115.137H201.979C199.236 107.623 195.202 100.645 190.061 94.5181L185.561 98.3317Z" fill="#264A87"/>
<path d="M201.858 162.005C204.604 154.502 206.015 146.576 206.03 138.585H200.07C200.057 145.885 198.765 153.125 196.257 159.98L201.858 162.005Z" fill="#264A87"/>
<path d="M149.625 70.949L148.583 76.9081C155.767 78.1838 162.668 80.7271 168.962 84.417L171.942 79.2625C165.054 75.1922 157.497 72.3775 149.626 70.949H149.625Z" fill="#264A87"/>
<path d="M126.861 76.7299L125.847 70.7708H125.849C117.975 72.1195 110.4 74.8424 103.471 78.8156L106.451 84.0008C112.78 80.4079 119.687 77.9486 126.861 76.7299H126.861Z" fill="#264A87"/>
<path d="M89.826 97.9742L85.1786 94.1313C80.0387 100.238 76.0045 107.195 73.2603 114.69L78.8322 116.747L78.8309 116.746C81.3715 109.895 85.0935 103.541 89.8261 97.9742L89.826 97.9742Z" fill="#264A87"/>
<path d="M68.9688 138.407C68.9569 146.296 70.3083 154.128 72.9621 161.559L78.5941 159.533H78.5927C76.1519 152.757 74.912 145.608 74.928 138.407V138.109H68.9689L68.9688 138.407Z" fill="#264A87"/>
<path d="M137.499 151.814C141.722 151.835 145.923 152.436 149.984 153.601C150.54 149.054 150.838 144.478 150.878 139.895H124.062C124.1 144.478 124.398 149.054 124.955 153.601C129.034 152.431 133.256 151.83 137.499 151.814Z" fill="#264A87"/>
<path d="M149.982 123.21C141.83 125.593 133.165 125.593 125.013 123.21C124.457 127.757 124.159 132.333 124.119 136.916H150.935C150.876 132.333 150.558 127.756 149.982 123.21H149.982Z" fill="#264A87"/>
</svg>
