<svg width="275" height="275" viewBox="0 0 275 275" fill="none" xmlns="http://www.w3.org/2000/svg">
<rect opacity="0.15" width="275" height="275" rx="43" fill="#264A87"/>
<path d="M114.982 151.38C115.904 151.38 117.01 151.011 117.747 150.274L130.471 137.735L135.451 142.715C136.926 144.19 139.324 144.19 140.798 142.715L154.628 128.884L159.054 133.31C159.607 133.863 160.529 134.233 161.452 133.863C162.374 133.679 162.927 132.941 163.111 132.019L166.43 114.501C166.614 113.764 166.43 113.025 165.877 112.472C165.323 111.919 164.585 111.735 163.848 111.735L146.33 115.054C145.408 115.238 144.855 115.791 144.485 116.713C144.301 117.635 144.485 118.372 145.039 119.111L149.465 123.537L138.4 134.602L133.42 129.622C131.945 128.147 129.363 128.147 128.073 129.622L112.768 144.928C111.292 146.403 111.292 148.801 112.768 150.275C112.953 151.012 113.875 151.38 114.981 151.38L114.982 151.38Z" fill="#264A87"/>
<path d="M113.322 168.899H122.173C123.464 168.899 124.385 167.976 124.385 166.686V152.856L122.173 155.068C120.328 157.097 117.747 158.019 114.981 158.019C113.875 158.019 112.769 157.835 111.846 157.65L111.109 157.466V166.87C111.108 167.791 112.03 168.899 113.322 168.899V168.899Z" fill="#264A87"/>
<path d="M154.813 138.472L154.444 138.103L152.784 139.762V166.686C152.784 167.978 153.706 168.899 154.997 168.899H163.848C165.139 168.899 166.06 167.976 166.06 166.686L166.061 138.472L165.139 139.025C162.004 141.054 157.762 140.87 154.813 138.472H154.813Z" fill="#264A87"/>
<path d="M132.869 148.983L131.946 148.43V166.687C131.946 167.978 132.869 168.899 134.159 168.899H143.01C144.301 168.899 145.222 167.977 145.222 166.687L145.224 147.324L144.301 148.061C142.457 149.536 140.244 150.273 137.846 150.273C136.187 150.273 134.344 149.905 132.869 148.983L132.869 148.983Z" fill="#264A87"/>
<path d="M96.3562 88.4984C85.8445 96.4272 77.7317 106.939 72.9365 119.11C71.8303 121.875 73.1204 125.012 76.0712 126.118C76.8083 126.302 77.3627 126.487 78.0997 126.487C80.3122 126.487 82.3407 125.195 83.079 122.983C87.1359 112.656 93.9585 103.805 102.811 97.1668C105.209 95.3222 105.762 92.0035 103.917 89.6059C102.257 87.2069 98.7525 86.6538 96.3563 88.4984L96.3562 88.4984Z" fill="#264A87"/>
<path d="M164.033 198.588C156.104 202.276 147.621 204.304 138.585 204.304C129.733 204.304 121.25 202.46 113.136 198.588C110.371 197.297 107.235 198.404 105.945 201.17C104.653 203.935 105.761 207.071 108.526 208.362C117.93 212.788 128.073 215 138.584 215C149.096 215 159.237 212.788 168.643 208.362C171.408 207.07 172.516 203.935 171.224 201.17C169.933 198.588 166.614 197.297 164.033 198.588H164.033Z" fill="#264A87"/>
<path d="M194.091 122.982C195.013 125.195 197.042 126.486 199.07 126.486C199.807 126.486 200.362 126.302 201.099 126.117C203.864 125.011 205.34 121.876 204.234 119.109C199.439 106.938 191.326 96.4278 180.814 88.4977C178.416 86.6532 175.098 87.2063 173.253 89.604C171.408 92.0016 171.961 95.3202 174.359 97.1649C183.212 103.805 190.034 112.84 194.091 122.982L194.091 122.982Z" fill="#264A87"/>
<path d="M162.005 94.2149C162.005 83.5195 158.317 74.1151 150.94 69.3196C150.571 69.1357 150.203 69.1357 149.834 69.3196C146.699 71.5321 142.826 73.0074 138.585 73.0074C134.344 73.0074 130.471 71.7159 127.336 69.3196C126.967 69.1357 126.599 68.9505 126.23 69.3196C118.854 74.1138 115.165 83.5191 115.165 94.2149C115.165 101.59 162.004 101.59 162.004 94.2149H162.005Z" fill="#264A87"/>
<path d="M152.6 54.0144C152.6 61.7555 146.325 68.0298 138.585 68.0298C130.846 68.0298 124.571 61.7551 124.571 54.0144C124.571 46.2747 130.846 40 138.585 40C146.325 40 152.6 46.2747 152.6 54.0144Z" fill="#264A87"/>
<path d="M93.7748 163.551C93.4056 163.367 93.0377 163.367 92.6685 163.551C89.5338 165.764 85.6608 167.239 81.4199 167.239C77.1789 167.239 73.3057 165.947 70.1712 163.551C69.802 163.367 69.4341 163.182 69.0649 163.551C61.6894 168.345 58 177.751 58 188.446C58 195.822 104.839 195.822 104.839 188.446C105.023 177.751 101.335 168.347 93.7752 163.551H93.7748Z" fill="#264A87"/>
<path d="M95.4341 148.246C95.4341 155.987 89.1594 162.261 81.4187 162.261C73.679 162.261 67.4043 155.986 67.4043 148.246C67.4043 140.506 73.679 134.231 81.4187 134.231C89.1598 134.231 95.4341 140.506 95.4341 148.246Z" fill="#264A87"/>
<path d="M207.921 163.551C207.552 163.367 207.184 163.367 206.815 163.551C203.68 165.764 199.807 167.239 195.566 167.239C191.325 167.239 187.452 165.947 184.318 163.551C183.948 163.367 183.581 163.182 183.211 163.551C175.836 168.345 172.146 177.751 172.146 188.446C172.146 195.822 218.985 195.822 218.985 188.446C219.171 177.751 215.483 168.347 207.922 163.551H207.921Z" fill="#264A87"/>
<path d="M209.765 148.246C209.765 155.987 203.49 162.261 195.751 162.261C188.01 162.261 181.735 155.986 181.735 148.246C181.735 140.506 188.01 134.231 195.751 134.231C203.49 134.231 209.765 140.506 209.765 148.246Z" fill="#264A87"/>
</svg>
