<svg width="275" height="275" viewBox="0 0 275 275" fill="none" xmlns="http://www.w3.org/2000/svg">
<rect opacity="0.15" x="0.5" y="0.5" width="274" height="274" rx="42.5" fill="#264A87" stroke="#264A87"/>
<path d="M144.071 81C144.071 82.8691 142.043 86.2589 136.701 86.2589C131.36 86.2589 129.33 82.561 129.33 81C101.5 84.6145 80 108.393 80 137.211C80 168.522 105.388 193.912 136.701 193.912C168.018 193.912 193.402 168.524 193.402 137.211C193.402 108.394 171.904 84.6154 144.072 81.003L144.071 81ZM136.702 182.404C111.739 182.404 91.508 162.172 91.508 137.211C91.508 112.248 111.74 92.0137 136.702 92.0137C161.664 92.0137 181.896 112.248 181.896 137.211C181.896 162.172 161.662 182.404 136.702 182.404Z" fill="#264A87"/>
<path d="M129.331 192.912C129.331 191.042 131.359 187.653 136.701 187.653C142.042 187.653 144.072 191.351 144.072 192.912C171.902 189.297 193.402 165.518 193.402 136.701C193.402 105.39 168.014 80.0001 136.701 80.0001C105.384 80.0001 79.9999 105.388 79.9999 136.701C79.9999 165.517 101.498 189.296 129.33 192.909L129.331 192.912ZM136.7 91.5072C161.663 91.5072 181.894 111.739 181.894 136.701C181.894 161.664 161.662 181.898 136.7 181.898C111.738 181.898 91.5061 161.663 91.5061 136.701C91.5061 111.74 111.739 91.5072 136.7 91.5072Z" fill="#264A87"/>
<path d="M213.342 125.21L203.431 113.335L204.077 97.8567C204.124 96.7348 203.503 95.69 202.495 95.1954L188.637 88.3966L182.958 73.9936C182.547 72.945 181.551 72.243 180.425 72.2012L165.017 71.6497L153.999 60.8134C153.193 60.0203 151.993 59.7838 150.948 60.2075L136.653 65.9956L122.204 60.5945C121.144 60.1973 119.956 60.468 119.171 61.2826L108.454 72.411L93.067 73.3786C91.9412 73.4494 90.966 74.1793 90.5815 75.2393L85.3004 89.7881L71.6334 96.9575C70.6367 97.4799 70.0447 98.5412 70.1231 99.6619L71.1919 115.116L61.6104 127.252C60.9147 128.132 60.8034 129.341 61.3296 130.333L68.5661 144.017L64.7283 159.019C64.45 160.109 64.8409 161.257 65.7225 161.951L77.8728 171.496L80.4443 186.771C80.6328 187.881 81.4575 188.775 82.5491 189.048L97.5088 192.806L106.043 205.706C106.664 206.645 107.783 207.124 108.896 206.933L124.082 204.258L137.098 212.557C137.564 212.853 138.093 213.001 138.621 213.001C139.177 213.001 139.729 212.839 140.209 212.515L152.994 203.869L168.246 206.135C169.378 206.302 170.472 205.787 171.067 204.831L179.244 191.707L194.095 187.548C195.181 187.244 195.981 186.327 196.137 185.214L198.291 169.877L210.174 160.01C211.04 159.292 211.398 158.133 211.09 157.054L206.843 142.159L213.704 128.285C214.205 127.276 214.062 126.071 213.342 125.21L213.342 125.21ZM201.283 140.623C200.972 141.254 200.905 141.979 201.097 142.655L205.137 156.826L193.832 166.213C193.289 166.664 192.933 167.3 192.835 167.999L190.786 182.588L176.659 186.543C175.978 186.734 175.392 187.173 175.019 187.773L167.242 200.255L152.739 198.099C152.041 197.999 151.322 198.159 150.736 198.555L138.577 206.776L126.199 198.885C125.741 198.593 125.213 198.441 124.676 198.441C124.513 198.441 124.349 198.455 124.185 198.484L109.744 201.028L101.629 188.759C101.239 188.17 100.642 187.746 99.9566 187.575L85.7268 184.002L83.2805 169.473C83.1628 168.777 82.791 168.149 82.2357 167.714L70.676 158.634L74.3263 144.361C74.5008 143.679 74.4148 142.956 74.0859 142.334L67.2011 129.314L76.3183 117.768C76.756 117.216 76.9697 116.519 76.9217 115.817L75.9034 101.116L88.9051 94.2967C89.5312 93.9678 90.0119 93.4176 90.2522 92.7535L95.2738 78.9171L109.908 77.9976C110.617 77.9533 111.281 77.6447 111.772 77.1362L121.96 66.554L135.701 71.6894C136.365 71.9385 137.099 71.9284 137.756 71.6615L151.349 66.158L161.826 76.4617C162.331 76.9588 163.003 77.2472 163.712 77.2737L178.365 77.7999L183.767 91.4974C184.026 92.1552 184.521 92.6915 185.154 93.0026L198.337 99.4701L197.722 114.195C197.693 114.898 197.927 115.587 198.377 116.128L207.807 127.426L201.283 140.623Z" fill="#264A87"/>
<path d="M156.549 122.02L133.606 144.964L118.459 129.817C117.353 128.71 115.56 128.71 114.452 129.817C113.345 130.924 113.345 132.716 114.452 133.824L131.603 150.975C132.134 151.506 132.855 151.805 133.606 151.805C134.358 151.805 135.079 151.506 135.61 150.975L160.555 126.029C161.661 124.922 161.661 123.13 160.555 122.022C159.448 120.914 157.656 120.914 156.549 122.02V122.02Z" fill="#264A87"/>
</svg>
