<svg width="275" height="275" viewBox="0 0 275 275" fill="none" xmlns="http://www.w3.org/2000/svg">
<rect opacity="0.15" width="275" height="275" rx="43" fill="#264A87"/>
<path opacity="0.9" d="M86.1445 158.416H100.744C100.451 163.201 99.1328 167.449 96.7891 171.16C94.4779 174.871 91.2389 177.768 87.0723 179.852C82.9382 181.935 77.9577 182.977 72.1309 182.977C67.5736 182.977 63.4883 182.195 59.875 180.633C56.2617 179.038 53.1693 176.759 50.5977 173.797C48.0586 170.835 46.1217 167.254 44.7871 163.055C43.4525 158.855 42.7852 154.152 42.7852 148.943V144.012C42.7852 138.803 43.4688 134.1 44.8359 129.9C46.2357 125.669 48.2214 122.072 50.793 119.109C53.3971 116.147 56.5059 113.868 60.1191 112.273C63.7324 110.678 67.7689 109.881 72.2285 109.881C78.153 109.881 83.1497 110.955 87.2188 113.104C91.3203 115.252 94.4941 118.214 96.7402 121.99C99.0189 125.766 100.386 130.063 100.842 134.881H86.1934C86.0306 132.016 85.4609 129.591 84.4844 127.605C83.5078 125.587 82.0267 124.074 80.041 123.064C78.0879 122.023 75.4837 121.502 72.2285 121.502C69.7871 121.502 67.6549 121.958 65.832 122.869C64.0091 123.781 62.4792 125.164 61.2422 127.02C60.0052 128.875 59.0775 131.219 58.459 134.051C57.873 136.85 57.5801 140.138 57.5801 143.914V148.943C57.5801 152.622 57.8568 155.861 58.4102 158.66C58.9635 161.427 59.8099 163.771 60.9492 165.691C62.1211 167.579 63.6185 169.012 65.4414 169.988C67.2969 170.932 69.5267 171.404 72.1309 171.404C75.1908 171.404 77.7135 170.916 79.6992 169.939C81.6849 168.963 83.1986 167.514 84.2402 165.594C85.3145 163.673 85.9492 161.281 86.1445 158.416ZM138.049 156.658H119.934V145.232H138.049C140.848 145.232 143.127 144.777 144.885 143.865C146.643 142.921 147.928 141.619 148.742 139.959C149.556 138.299 149.963 136.427 149.963 134.344C149.963 132.228 149.556 130.258 148.742 128.436C147.928 126.613 146.643 125.148 144.885 124.041C143.127 122.934 140.848 122.381 138.049 122.381H125.012V182H110.363V110.906H138.049C143.615 110.906 148.384 111.915 152.355 113.934C156.359 115.919 159.419 118.67 161.535 122.186C163.651 125.701 164.709 129.721 164.709 134.246C164.709 138.836 163.651 142.807 161.535 146.16C159.419 149.513 156.359 152.101 152.355 153.924C148.384 155.747 143.615 156.658 138.049 156.658ZM233.215 144.793V148.162C233.215 153.566 232.482 158.416 231.018 162.713C229.553 167.01 227.486 170.672 224.816 173.699C222.147 176.694 218.957 178.989 215.246 180.584C211.568 182.179 207.482 182.977 202.99 182.977C198.531 182.977 194.445 182.179 190.734 180.584C187.056 178.989 183.866 176.694 181.164 173.699C178.462 170.672 176.363 167.01 174.865 162.713C173.4 158.416 172.668 153.566 172.668 148.162V144.793C172.668 139.357 173.4 134.507 174.865 130.242C176.33 125.945 178.397 122.283 181.066 119.256C183.768 116.229 186.958 113.917 190.637 112.322C194.348 110.727 198.433 109.93 202.893 109.93C207.385 109.93 211.47 110.727 215.148 112.322C218.859 113.917 222.049 116.229 224.719 119.256C227.421 122.283 229.504 125.945 230.969 130.242C232.466 134.507 233.215 139.357 233.215 144.793ZM218.42 148.162V144.695C218.42 140.919 218.078 137.599 217.395 134.734C216.711 131.87 215.702 129.461 214.367 127.508C213.033 125.555 211.405 124.09 209.484 123.113C207.564 122.104 205.367 121.6 202.893 121.6C200.419 121.6 198.221 122.104 196.301 123.113C194.413 124.09 192.801 125.555 191.467 127.508C190.165 129.461 189.172 131.87 188.488 134.734C187.805 137.599 187.463 140.919 187.463 144.695V148.162C187.463 151.906 187.805 155.226 188.488 158.123C189.172 160.988 190.181 163.413 191.516 165.398C192.85 167.352 194.478 168.833 196.398 169.842C198.319 170.851 200.516 171.355 202.99 171.355C205.464 171.355 207.661 170.851 209.582 169.842C211.503 168.833 213.114 167.352 214.416 165.398C215.718 163.413 216.711 160.988 217.395 158.123C218.078 155.226 218.42 151.906 218.42 148.162Z" fill="#264A87"/>
</svg>
