<svg width="275" height="275" viewBox="0 0 275 275" fill="none" xmlns="http://www.w3.org/2000/svg">
<rect opacity="0.15" width="275" height="275" rx="43" fill="#264A87"/>
<path d="M179.681 152.872C169.34 152.872 160.927 161.284 160.927 171.625C160.927 181.965 169.339 190.377 179.681 190.377C190.021 190.377 198.433 181.965 198.433 171.625C198.433 161.287 190.021 152.872 179.681 152.872ZM179.681 183.977C172.872 183.977 167.333 178.437 167.333 171.628C167.333 164.82 172.872 159.28 179.681 159.28C186.489 159.28 192.029 164.82 192.029 171.628C192.029 178.437 186.489 183.977 179.681 183.977ZM214.363 162.274C212.27 162.274 210.54 161.115 209.737 159.177C208.933 157.236 209.337 155.196 210.817 153.717C211.882 152.651 212.471 151.234 212.471 149.728C212.471 148.223 211.885 146.806 210.82 145.74L205.57 140.49C204.504 139.425 203.087 138.839 201.582 138.839C200.076 138.839 198.659 139.425 197.593 140.49C196.114 141.971 194.071 142.373 192.133 141.571C190.193 140.768 189.036 139.037 189.036 136.944C189.036 133.835 186.506 131.304 183.395 131.304H182.885L182.884 87.8137C182.884 86.046 181.452 84.611 179.682 84.611H141.854C140.979 78.6561 138.745 72.8259 135.176 67.4643C127.067 55.2768 113.602 48 99.1501 48C84.7004 48 71.2353 55.2771 63.1272 67.4631C55.3182 79.2014 53.8734 93.1768 59.1643 105.804C61.7773 112.042 64.1189 117.21 66.1869 121.769C69.2982 128.633 71.6398 133.808 73.136 138.693C71.366 140.289 70.2528 142.597 70.2528 145.16C70.2528 147.248 70.9913 149.166 72.2222 150.667C70.9925 152.17 70.2528 154.087 70.2528 156.175C70.2528 160.977 74.1604 164.884 78.9625 164.884H79.6938C79.4909 165.619 79.3816 166.392 79.3816 167.19C79.3816 171.992 83.2891 175.899 88.0913 175.899H95.9473V193.525C95.9473 195.293 97.3799 196.728 99.1499 196.728H147.884C148.077 197.006 148.293 197.27 148.538 197.513L153.788 202.764C154.853 203.829 156.27 204.415 157.776 204.415C159.282 204.415 160.699 203.829 161.764 202.764C163.247 201.28 165.29 200.876 167.228 201.677C169.166 202.48 170.322 204.211 170.322 206.308C170.322 209.417 172.852 211.95 175.963 211.95H183.386C186.495 211.95 189.028 209.42 189.028 206.308C189.028 204.215 190.186 202.485 192.125 201.681C194.065 200.878 196.105 201.281 197.585 202.762C198.65 203.827 200.067 204.413 201.573 204.413C203.079 204.413 204.496 203.827 205.561 202.762L210.81 197.512C211.875 196.447 212.463 195.03 212.463 193.524C212.463 192.018 211.877 190.601 210.812 189.536C209.333 188.056 208.928 186.014 209.732 184.076C210.535 182.135 212.264 180.979 214.358 180.979C217.467 180.979 220 178.448 220 175.337V167.914C220.001 164.805 217.471 162.273 214.362 162.273L214.363 162.274ZM65.0734 103.33C60.6266 92.7134 61.8599 80.932 68.4611 71.0114C75.3779 60.6146 86.8506 54.406 99.1509 54.406C111.451 54.406 122.924 60.6143 129.842 71.0114C136.443 80.9351 137.679 92.7155 133.23 103.33C130.652 109.484 128.329 114.608 126.281 119.128C123.261 125.792 120.792 131.245 119.156 136.453H108.643V103.135H114.422C121.14 103.135 126.606 97.6689 126.606 90.9513C126.606 84.2336 121.14 78.7675 114.422 78.7675C107.705 78.7675 102.239 84.2336 102.239 90.9513V96.731H96.0627V90.9513C96.0627 84.2336 90.5965 78.7675 83.8789 78.7675C77.1612 78.7675 71.6951 84.2336 71.6951 90.9513C71.6951 97.6689 77.1612 103.135 83.8789 103.135H89.6586V136.453H79.1453C77.5097 131.247 75.0407 125.792 72.0206 119.128C69.9744 114.607 67.6532 109.483 65.0737 103.331L65.0734 103.33ZM76.6601 145.16C76.6601 143.888 77.6953 142.854 78.9657 142.854H119.342C120.613 142.854 121.647 143.889 121.647 145.16C121.647 146.432 120.612 147.466 119.342 147.466H78.9627C77.6922 147.466 76.6583 146.43 76.6583 145.16H76.6601ZM89.6604 96.7267H83.8807C80.6937 96.7267 78.101 94.1341 78.101 90.947C78.101 87.76 80.6936 85.1672 83.8807 85.1672C87.0677 85.1672 89.6604 87.7599 89.6604 90.947V96.7267ZM102.242 136.448H96.0657V103.13H102.242V136.448ZM108.646 96.7267V90.947C108.646 87.76 111.238 85.1672 114.425 85.1672C117.612 85.1672 120.205 87.7599 120.205 90.947C120.205 94.1339 117.613 96.7267 114.425 96.7267H108.646ZM76.6592 156.175C76.6592 154.903 77.6943 153.869 78.9648 153.869H119.341C120.612 153.869 121.646 154.904 121.646 156.175C121.646 157.446 120.611 158.48 119.341 158.48L78.9618 158.481C77.6913 158.481 76.6573 157.446 76.6573 156.175L76.6592 156.175ZM85.7879 167.191C85.7879 165.941 86.8447 164.886 88.0935 164.886H110.212C111.483 164.886 112.517 165.921 112.517 167.191C112.517 168.463 111.482 169.497 110.212 169.497H88.0948C86.8231 169.496 85.7879 168.46 85.7879 167.191H85.7879ZM102.355 175.901H110.211C115.013 175.901 118.921 171.993 118.921 167.191C118.921 166.393 118.811 165.62 118.608 164.886H119.34C124.142 164.886 128.049 160.978 128.049 156.176C128.049 154.089 127.311 152.17 126.08 150.669C127.31 149.167 128.049 147.249 128.049 145.159C128.049 142.596 126.936 140.287 125.166 138.692C126.661 133.806 129.004 128.633 132.115 121.768C134.181 117.207 136.524 112.04 139.138 105.801C141.15 101 142.184 96.0042 142.269 91.0112H176.475L176.476 131.301H175.967C172.858 131.301 170.326 133.831 170.326 136.942C170.326 139.035 169.167 140.765 167.229 141.568C165.289 142.372 163.249 141.968 161.769 140.488C160.704 139.423 159.287 138.837 157.781 138.837C156.275 138.837 154.858 139.423 153.793 140.488L148.543 145.738C147.478 146.803 146.892 148.22 146.892 149.726C146.892 151.232 147.478 152.649 148.543 153.714C150.022 155.193 150.427 157.236 149.624 159.177C148.82 161.117 147.091 162.274 144.997 162.274C141.888 162.274 139.355 164.804 139.355 167.915V175.339C139.355 178.448 141.885 180.98 144.997 180.98C147.09 180.98 148.82 182.139 149.624 184.077C150.427 186.018 150.023 188.058 148.543 189.54C148.299 189.784 148.084 190.049 147.89 190.328L102.355 190.327L102.355 175.901ZM213.599 174.597C209.227 174.873 205.522 177.512 203.821 181.624C202.119 185.736 202.871 190.221 205.766 193.507L201.563 197.71C198.276 194.814 193.791 194.061 189.68 195.765C185.568 197.469 182.928 201.171 182.652 205.544H176.708C176.432 201.167 173.794 197.462 169.684 195.759C165.574 194.055 161.087 194.811 157.797 197.712L153.594 193.509C156.491 190.222 157.244 185.737 155.54 181.625C153.836 177.514 150.133 174.874 145.761 174.598V168.654C150.133 168.378 153.836 165.739 155.54 161.628C157.244 157.516 156.489 153.031 153.594 149.745L157.797 145.542C161.084 148.438 165.569 149.191 169.681 147.487C173.792 145.783 176.432 142.081 176.708 137.708H182.652C182.928 142.081 185.568 145.785 189.679 147.487C193.791 149.191 198.276 148.437 201.563 145.542L205.766 149.745C202.869 153.031 202.116 157.516 203.82 161.628C205.524 165.74 209.227 168.379 213.599 168.654L213.599 174.597Z" fill="#264A87"/>
</svg>
